<svg xmlns="http://www.w3.org/2000/svg" version="1.1" xmlns:xlink="http://www.w3.org/1999/xlink" xmlns:svgjs="http://svgjs.com/svgjs" width="500" height="500"><svg xmlns="http://www.w3.org/2000/svg" xmlns:xlink="http://www.w3.org/1999/xlink" width="500" zoomAndPan="magnify" viewBox="0 0 375 374.999991" height="500" preserveAspectRatio="xMidYMid meet" version="1.0"><defs><clipPath id="SvgjsClipPath1001"><path d="M 83.085938 8.660156 L 292.335938 8.660156 L 292.335938 265.773438 L 83.085938 265.773438 Z M 83.085938 8.660156 " clip-rule="nonzero"></path></clipPath><clipPath id="SvgjsClipPath1000"><path d="M 156 338 L 226 338 L 226 366.382812 L 156 366.382812 Z M 156 338 " clip-rule="nonzero"></path></clipPath></defs><g clip-path="url(#6325aa8dc0)"><path fill="#000000" d="M 150.738281 265.140625 C 147.167969 265.664062 143.554688 264.042969 141.046875 261.546875 C 138.476562 259.066406 136.730469 255.769531 135.90625 252.3125 C 134.195312 245.359375 134.945312 238.234375 133.503906 231.464844 C 132.253906 224.648438 129.800781 218.101562 126.691406 211.898438 C 123.585938 205.6875 119.835938 199.804688 115.96875 193.992188 C 108.226562 182.386719 99.648438 171.164062 93.332031 158.457031 C 90.230469 152.082031 87.84375 145.378906 86.125 138.511719 C 84.375 131.648438 83.527344 124.585938 83.199219 117.53125 C 83.167969 115.765625 83.027344 113.996094 83.113281 112.230469 L 83.304688 106.933594 C 83.628906 103.417969 83.894531 99.894531 84.539062 96.417969 C 85.695312 89.460938 87.410156 82.578125 89.984375 76.007812 C 92.519531 69.429688 95.640625 63.074219 99.457031 57.148438 C 103.3125 51.253906 107.734375 45.742188 112.65625 40.714844 C 132.507812 20.796875 160.21875 8.660156 188.558594 8.660156 C 195.625 8.730469 202.679688 9.519531 209.597656 10.980469 C 216.515625 12.480469 223.246094 14.757812 229.734375 17.5625 C 236.25 20.347656 242.414062 23.90625 248.226562 27.941406 C 254.050781 31.96875 259.480469 36.589844 264.324219 41.765625 C 269.171875 46.929688 273.628906 52.496094 277.300781 58.582031 C 280.972656 64.652344 284.019531 71.089844 286.425781 77.765625 C 291.054688 91.179688 293.027344 105.496094 292.121094 119.636719 C 291.980469 123.183594 291.464844 126.691406 291.007812 130.207031 L 290.011719 135.429688 C 289.71875 137.179688 289.171875 138.871094 288.761719 140.597656 C 286.90625 147.425781 284.53125 154.160156 281.210938 160.4375 C 274.761719 173.097656 265.816406 184.050781 259.054688 196.1875 C 257.371094 199.21875 255.796875 202.3125 254.480469 205.507812 C 253.769531 207.085938 253.226562 208.722656 252.636719 210.347656 C 252.136719 211.996094 251.601562 213.640625 251.214844 215.320312 C 249.597656 222.042969 249.121094 229.050781 248 236 C 247.414062 239.472656 246.722656 242.949219 245.558594 246.300781 C 244.390625 249.660156 242.777344 252.863281 240.65625 255.710938 C 238.5625 258.566406 236 261.117188 232.949219 262.949219 C 229.945312 264.84375 226.371094 265.804688 222.84375 265.734375 L 222.847656 265.472656 C 226.328125 265.445312 229.78125 264.414062 232.664062 262.488281 C 235.585938 260.625 238.019531 258.070312 239.984375 255.234375 C 241.976562 252.402344 243.460938 249.238281 244.507812 245.960938 C 245.539062 242.660156 246.183594 239.238281 246.6875 235.800781 C 247.675781 228.914062 248.015625 221.878906 249.542969 214.9375 C 249.914062 213.203125 250.429688 211.5 250.914062 209.792969 C 251.488281 208.113281 252.019531 206.417969 252.714844 204.789062 C 253.996094 201.476562 255.585938 198.308594 257.261719 195.199219 C 264.011719 182.785156 272.820312 171.730469 278.957031 159.304688 L 281.167969 154.617188 L 283.074219 149.796875 C 283.765625 148.210938 284.195312 146.53125 284.757812 144.898438 L 285.554688 142.433594 L 286.203125 139.921875 C 286.59375 138.242188 287.125 136.589844 287.40625 134.882812 L 288.363281 129.789062 C 288.796875 126.363281 289.296875 122.9375 289.425781 119.480469 C 290.308594 105.671875 288.246094 91.75 283.847656 78.664062 C 281.546875 72.148438 278.617188 65.859375 275.078125 59.925781 C 271.546875 53.980469 267.230469 48.523438 262.53125 43.453125 C 261.316406 42.222656 260.175781 40.914062 258.898438 39.742188 L 255.074219 36.226562 C 252.402344 34.023438 249.757812 31.777344 246.898438 29.8125 C 241.261719 25.789062 235.265625 22.210938 228.914062 19.394531 C 222.582031 16.554688 216 14.226562 209.21875 12.65625 C 202.433594 11.128906 195.507812 10.253906 188.542969 10.089844 C 160.65625 9.632812 132.800781 21.378906 113.304688 41.347656 C 108.464844 46.371094 104.105469 51.84375 100.367188 57.726562 C 96.699219 63.652344 93.734375 69.980469 91.351562 76.507812 C 88.933594 83.027344 87.367188 89.839844 86.347656 96.695312 C 85.773438 100.121094 85.574219 103.589844 85.316406 107.042969 L 85.222656 112.246094 C 85.171875 113.976562 85.335938 115.707031 85.367188 117.441406 C 85.726562 124.351562 86.59375 131.257812 88.34375 137.964844 C 90.070312 144.667969 92.445312 151.191406 95.398438 157.449219 C 101.488281 169.929688 109.933594 181.160156 117.644531 192.882812 C 121.519531 198.742188 125.1875 204.773438 128.246094 211.144531 C 131.300781 217.503906 133.695312 224.238281 134.855469 231.226562 C 136.230469 238.230469 135.277344 245.351562 136.773438 252.105469 C 137.484375 255.476562 139.0625 258.640625 141.476562 261.113281 C 143.832031 263.578125 147.214844 265.269531 150.703125 264.882812 L 150.738281 265.140625 " fill-opacity="1" fill-rule="nonzero"></path></g><path fill="#000000" d="M 223.25 266.375 C 206.964844 262.933594 190.273438 264.820312 173.882812 265.226562 C 169.800781 265.480469 165.742188 265.921875 161.804688 266.773438 C 159.816406 267.199219 157.921875 267.710938 156.078125 268.472656 C 154.238281 269.226562 152.457031 270.132812 150.835938 271.230469 C 149.234375 272.332031 147.734375 273.625 146.800781 275.179688 C 145.863281 276.714844 145.519531 278.5 146.085938 280.222656 C 146.617188 281.898438 147.972656 283.253906 149.636719 284.21875 C 151.308594 285.1875 153.242188 285.816406 155.207031 286.277344 C 159.171875 287.15625 163.304688 287.40625 167.441406 287.566406 C 171.578125 287.757812 175.710938 287.949219 179.84375 287.960938 C 188.113281 288.007812 196.382812 287.503906 204.527344 286.441406 C 208.601562 285.945312 212.648438 285.285156 216.65625 284.464844 C 217.664062 284.277344 218.660156 284.042969 219.652344 283.800781 C 220.648438 283.574219 221.65625 283.371094 222.636719 283.089844 C 224.625 282.554688 226.613281 282.125 228.421875 281.316406 C 230.222656 280.53125 231.957031 279.460938 233 277.875 C 233.519531 277.089844 233.824219 276.167969 233.894531 275.21875 C 233.941406 274.269531 233.734375 273.292969 233.324219 272.398438 C 232.515625 270.570312 230.921875 269.15625 229.113281 268.230469 C 227.289062 267.300781 225.261719 266.816406 223.25 266.375 Z M 223.304688 266.121094 C 225.332031 266.527344 227.371094 267.011719 229.273438 267.910156 C 231.179688 268.769531 232.882812 270.203125 233.933594 272.09375 C 234.460938 273.035156 234.785156 274.113281 234.8125 275.234375 C 234.820312 276.347656 234.542969 277.476562 233.996094 278.460938 C 232.890625 280.449219 231.019531 281.785156 229.136719 282.792969 C 227.222656 283.820312 225.1875 284.46875 223.207031 285.085938 C 221.210938 285.714844 219.1875 286.273438 217.140625 286.707031 C 213.066406 287.65625 208.914062 288.25 204.757812 288.605469 C 200.597656 288.9375 196.429688 289.066406 192.277344 289.070312 C 188.121094 289.050781 183.972656 288.921875 179.832031 288.808594 L 167.410156 288.484375 C 163.285156 288.335938 159.09375 288.429688 154.925781 287.679688 C 152.847656 287.3125 150.753906 286.78125 148.78125 285.78125 C 146.828125 284.820312 144.925781 283.179688 144.117188 280.886719 C 143.261719 278.671875 143.644531 276.015625 144.808594 274.015625 C 145.945312 271.964844 147.675781 270.492188 149.425781 269.214844 C 152.96875 266.726562 157.046875 265.042969 161.199219 264.117188 C 165.332031 263.121094 169.542969 262.707031 173.714844 262.445312 C 177.894531 262.242188 182.058594 262.191406 186.195312 262.238281 C 190.3125 262.238281 194.507812 262.324219 198.652344 262.636719 C 206.960938 263.214844 215.195312 264.441406 223.304688 266.121094 " fill-opacity="1" fill-rule="nonzero"></path><path fill="#000000" d="M 148.847656 289.296875 C 146.46875 289.980469 145.234375 292.433594 145.253906 294.609375 C 145.25 296.804688 146.6875 298.777344 148.523438 300.007812 C 150.382812 301.277344 152.621094 301.855469 154.957031 302.023438 C 157.292969 302.183594 159.726562 302.023438 162.210938 301.96875 C 167.160156 301.882812 172.121094 301.988281 177.066406 301.8125 C 182.011719 301.640625 186.945312 301.203125 191.871094 300.703125 C 196.796875 300.179688 201.726562 299.722656 206.660156 299.371094 C 211.597656 299.011719 216.53125 298.628906 221.472656 298.390625 C 223.839844 298.296875 226.207031 297.953125 228.296875 297.167969 C 230.40625 296.398438 232.011719 294.921875 232.277344 292.878906 C 232.527344 290.878906 231.359375 288.636719 229.597656 287.1875 C 227.808594 285.675781 225.492188 284.734375 223.210938 283.785156 L 223.289062 283.535156 C 225.695312 284.078125 228.1875 284.667969 230.390625 286.128906 C 231.488281 286.867188 232.460938 287.828125 233.1875 288.988281 C 233.914062 290.140625 234.40625 291.546875 234.332031 293.03125 C 234.242188 294.488281 233.6875 295.953125 232.710938 297.070312 C 231.75 298.191406 230.519531 298.945312 229.285156 299.5 C 226.789062 300.605469 224.183594 300.972656 221.625 301.171875 C 216.6875 301.480469 211.742188 301.644531 206.796875 301.828125 C 201.855469 302.023438 196.902344 302.109375 191.949219 302.132812 C 186.996094 302.179688 182.046875 302.289062 177.113281 302.660156 C 172.179688 303.03125 167.261719 303.683594 162.332031 304.140625 C 159.882812 304.34375 157.359375 304.582031 154.761719 304.328125 C 153.464844 304.199219 152.15625 303.96875 150.882812 303.542969 C 149.601562 303.105469 148.398438 302.464844 147.324219 301.640625 C 145.195312 300.035156 143.523438 297.363281 143.863281 294.53125 C 144.003906 293.167969 144.558594 291.878906 145.429688 290.867188 C 146.269531 289.839844 147.515625 289.128906 148.800781 289.042969 L 148.847656 289.296875 " fill-opacity="1" fill-rule="nonzero"></path><path fill="#000000" d="M 149.21875 302.4375 C 148.574219 304.25 147.820312 306.007812 147.125 307.796875 C 146.390625 309.5625 145.640625 311.324219 144.863281 313.070312 L 144.234375 311.761719 C 148.289062 312.488281 152.367188 313.003906 156.464844 313.410156 C 160.5625 313.816406 164.671875 314.296875 168.820312 314.535156 C 172.960938 314.816406 177.125 314.734375 181.265625 314.449219 C 185.414062 314.152344 189.542969 313.640625 193.679688 313.1875 C 197.820312 312.761719 201.964844 312.414062 206.113281 312.074219 C 210.257812 311.722656 214.40625 311.414062 218.5625 311.242188 C 222.6875 310.894531 227.046875 311.425781 230.144531 309.421875 C 231.679688 308.460938 232.890625 306.765625 232.726562 304.992188 C 232.582031 303.257812 230.980469 301.359375 228.929688 301.589844 L 228.871094 301.335938 C 229.921875 300.972656 231.148438 301.273438 232.054688 301.949219 C 232.976562 302.613281 233.679688 303.613281 233.953125 304.78125 C 234.449219 307.214844 233.078125 309.554688 231.296875 310.980469 C 229.433594 312.457031 227.140625 313.050781 225.003906 313.34375 C 222.847656 313.625 220.820312 313.761719 218.734375 313.933594 C 214.589844 314.289062 210.4375 314.515625 206.28125 314.691406 C 202.125 314.890625 197.96875 315.074219 193.808594 315.179688 L 181.308594 315.347656 C 177.140625 315.441406 172.984375 315.589844 168.808594 315.808594 C 164.636719 315.988281 160.429688 316.121094 156.242188 315.734375 C 152.0625 315.351562 147.898438 314.636719 143.832031 313.566406 L 142.65625 313.253906 L 143.203125 312.253906 C 144.113281 310.574219 145.054688 308.90625 146.003906 307.246094 C 147 305.605469 147.9375 303.9375 148.984375 302.324219 L 149.21875 302.4375 " fill-opacity="1" fill-rule="nonzero"></path><path fill="#000000" d="M 149.714844 316.078125 C 148.8125 316.328125 148.113281 316.945312 147.714844 317.703125 C 147.308594 318.460938 147.179688 319.351562 147.21875 320.207031 C 147.300781 321.9375 148.074219 323.570312 149.445312 324.414062 C 150.832031 325.375 152.5625 325.769531 154.347656 325.933594 C 156.140625 326.105469 158 325.980469 159.914062 325.945312 C 167.5625 325.792969 175.238281 326.449219 182.871094 325.902344 C 186.691406 325.679688 190.503906 325.316406 194.320312 324.992188 C 198.136719 324.660156 201.957031 324.492188 205.773438 324.28125 C 213.410156 323.800781 221.058594 323.675781 228.714844 323.742188 L 227.859375 324.230469 C 229.027344 322.535156 229.742188 320.441406 229.789062 318.265625 C 229.84375 316.101562 229.355469 313.867188 228.1875 311.902344 L 228.398438 311.75 C 229.960938 313.484375 230.933594 315.808594 231.144531 318.21875 C 231.355469 320.621094 230.933594 323.171875 229.640625 325.359375 L 229.378906 325.800781 L 228.785156 325.847656 C 221.152344 326.429688 213.511719 326.820312 205.863281 326.851562 C 202.035156 326.898438 198.214844 326.988281 194.382812 326.914062 C 190.554688 326.84375 186.726562 326.742188 182.902344 326.773438 C 175.246094 326.738281 167.632812 327.910156 159.996094 328.273438 C 158.09375 328.367188 156.113281 328.398438 154.101562 328.160156 C 152.109375 327.914062 149.996094 327.300781 148.304688 325.9375 C 147.46875 325.292969 146.714844 324.304688 146.351562 323.300781 C 145.96875 322.285156 145.839844 321.210938 145.933594 320.164062 C 146.035156 319.121094 146.386719 318.089844 147.03125 317.25 C 147.660156 316.402344 148.667969 315.84375 149.671875 315.820312 L 149.714844 316.078125 " fill-opacity="1" fill-rule="nonzero"></path><path fill="#000000" d="M 149.652344 326.832031 C 149.175781 328.167969 148.625 329.46875 148.101562 330.785156 C 147.585938 332.101562 147.003906 333.386719 146.453125 334.683594 L 146.046875 333.566406 C 153.410156 336.320312 161.097656 337.660156 168.890625 338.972656 C 172.800781 339.578125 176.769531 339.824219 180.734375 339.742188 C 184.699219 339.675781 188.652344 339.28125 192.609375 338.921875 C 196.5625 338.535156 200.53125 338.316406 204.496094 338.0625 C 208.460938 337.800781 212.429688 337.5625 216.402344 337.480469 C 218.390625 337.421875 220.320312 337.390625 222.164062 337.117188 C 223.996094 336.828125 225.761719 336.308594 227.132812 335.210938 C 228.511719 334.25 229.222656 332.480469 229.160156 330.667969 C 229.121094 329.773438 228.929688 328.859375 228.445312 328.097656 C 227.972656 327.335938 227.195312 326.746094 226.242188 326.558594 L 226.265625 326.296875 C 227.304688 326.269531 228.375 326.78125 229.082031 327.609375 C 229.800781 328.429688 230.25 329.46875 230.414062 330.539062 C 230.582031 331.609375 230.527344 332.722656 230.210938 333.800781 C 229.921875 334.863281 229.238281 335.945312 228.429688 336.691406 C 226.796875 338.238281 224.664062 339.078125 222.617188 339.507812 C 220.554688 339.964844 218.492188 340.082031 216.519531 340.195312 C 212.554688 340.457031 208.582031 340.5625 204.609375 340.648438 C 200.636719 340.730469 196.667969 340.867188 192.683594 340.8125 L 180.734375 340.570312 L 168.765625 340.4375 C 160.75 340.425781 152.644531 338.632812 145.394531 335.066406 L 144.566406 334.660156 L 144.988281 333.949219 C 145.707031 332.730469 146.398438 331.503906 147.15625 330.308594 C 147.90625 329.105469 148.625 327.894531 149.417969 326.714844 L 149.652344 326.832031 " fill-opacity="1" fill-rule="nonzero"></path><g clip-path="url(#a180f1abf9)"><path fill="#000000" d="M 156.734375 338.359375 C 158.296875 341.894531 160.203125 345.160156 162.539062 348.09375 C 164.859375 351.035156 167.570312 353.613281 170.476562 355.980469 C 173.351562 358.371094 176.523438 360.558594 180.054688 362.023438 C 183.582031 363.484375 187.398438 364.246094 191.1875 364.316406 C 194.972656 364.347656 198.757812 363.992188 202.277344 362.96875 C 205.820312 361.949219 208.855469 359.976562 211.289062 357.285156 C 216.261719 351.988281 219.15625 344.238281 225.121094 339.03125 L 225.3125 339.210938 C 223.027344 342.324219 221.332031 345.699219 219.621094 349.152344 C 217.898438 352.578125 216.042969 356.085938 213.359375 359.160156 C 212.015625 360.6875 210.394531 362.015625 208.621094 363.085938 C 206.820312 364.117188 204.890625 364.851562 202.925781 365.339844 C 198.988281 366.351562 194.957031 366.285156 191.066406 365.742188 C 187.167969 365.203125 183.414062 364.113281 179.75 362.816406 C 176.09375 361.507812 172.453125 359.945312 169.167969 357.722656 C 162.714844 353.203125 157.769531 346.15625 156.480469 338.433594 L 156.734375 338.359375 " fill-opacity="1" fill-rule="nonzero"></path></g><path fill="#000000" d="M 187.441406 262.734375 C 190.792969 245.164062 190.457031 227.140625 186.496094 209.878906 C 184.640625 201.25 181.476562 192.671875 180.835938 183.625 C 180.492188 179.113281 180.992188 174.5625 182.042969 170.183594 C 183.164062 165.816406 184.648438 161.546875 186.417969 157.414062 C 188.152344 153.265625 190.046875 149.199219 191.855469 145.140625 C 193.648438 141.066406 195.316406 136.953125 196.679688 132.761719 C 199.367188 124.425781 200.71875 115.480469 198.453125 107.15625 C 197.433594 102.992188 195.367188 99.113281 193.164062 95.289062 C 190.945312 91.457031 188.472656 87.691406 186.390625 83.644531 C 184.300781 79.582031 182.871094 75.136719 182.476562 70.566406 C 182.082031 66.035156 183.03125 61.191406 185.875 57.621094 L 186.089844 57.769531 C 184.898438 59.648438 184.136719 61.75 183.789062 63.90625 C 183.441406 66.066406 183.503906 68.265625 183.792969 70.421875 C 184.402344 74.753906 186.070312 78.871094 188.199219 82.679688 C 190.347656 86.523438 192.921875 90.160156 195.328125 93.988281 C 197.726562 97.804688 199.933594 101.914062 201.148438 106.433594 C 202.347656 110.929688 202.683594 115.65625 202.140625 120.226562 C 201.628906 124.804688 200.484375 129.25 199.015625 133.539062 C 196.09375 142.148438 191.628906 150.015625 187.726562 157.996094 C 185.824219 162.015625 184.054688 166.113281 182.9375 170.410156 C 181.824219 174.691406 181.242188 179.144531 181.679688 183.554688 C 182.078125 187.972656 183.261719 192.277344 184.609375 196.515625 C 185.941406 200.761719 187.46875 204.988281 188.613281 209.363281 C 193.105469 226.859375 192.792969 245.597656 187.695312 262.796875 L 187.441406 262.734375 " fill-opacity="1" fill-rule="nonzero"></path><path fill="#000000" d="M 193.691406 95.292969 C 195.085938 91.382812 197.359375 87.785156 200.117188 84.628906 C 202.890625 81.488281 206.148438 78.714844 209.847656 76.714844 C 213.554688 74.710938 217.535156 73.378906 221.515625 72.269531 C 225.507812 71.199219 229.59375 70.371094 233.789062 70.15625 L 234.503906 70.121094 L 234.589844 70.933594 C 235.007812 74.878906 234.445312 78.929688 233.109375 82.699219 C 231.800781 86.476562 229.734375 90.042969 226.921875 92.945312 C 224.121094 95.851562 220.691406 98.109375 216.980469 99.554688 C 213.269531 100.984375 209.28125 101.667969 205.398438 101.347656 L 205.390625 101.085938 C 209.203125 100.558594 212.847656 99.441406 216.152344 97.714844 C 219.457031 96.007812 222.445312 93.765625 224.90625 91.058594 C 227.355469 88.359375 229.371094 85.234375 230.753906 81.820312 C 232.109375 78.398438 232.851562 74.726562 232.972656 70.996094 L 233.777344 71.769531 C 229.757812 71.496094 225.632812 71.855469 221.742188 73.054688 C 217.835938 74.21875 214.246094 76.238281 210.945312 78.507812 C 207.644531 80.78125 204.460938 83.203125 201.613281 86.035156 C 198.75 88.847656 196.222656 91.996094 193.925781 95.410156 L 193.691406 95.292969 " fill-opacity="1" fill-rule="nonzero"></path><path fill="#000000" d="M 184.464844 79.78125 C 180.324219 81.253906 175.8125 81.976562 171.289062 81.464844 C 169.042969 81.183594 166.773438 80.65625 164.6875 79.648438 C 163.648438 79.148438 162.65625 78.539062 161.738281 77.84375 C 160.835938 77.128906 160 76.339844 159.234375 75.5 C 157.695312 73.824219 156.515625 71.910156 155.4375 69.980469 C 154.363281 68.050781 153.472656 66.03125 152.664062 63.984375 C 151.058594 59.886719 149.835938 55.617188 148.890625 51.367188 L 148.453125 49.386719 L 150.429688 50.097656 C 153.316406 51.136719 156.195312 52.214844 159.066406 53.34375 C 161.933594 54.484375 164.75 55.78125 167.488281 57.238281 C 170.222656 58.703125 172.890625 60.320312 175.394531 62.171875 C 176.636719 63.109375 177.847656 64.082031 179.027344 65.085938 C 180.164062 66.148438 181.289062 67.210938 182.3125 68.371094 L 182.136719 68.566406 C 181.492188 68.140625 180.859375 67.710938 180.238281 67.269531 L 178.308594 66.035156 C 177.027344 65.21875 175.722656 64.441406 174.398438 63.703125 C 171.75 62.234375 169.050781 60.871094 166.304688 59.59375 C 163.566406 58.308594 160.78125 57.101562 158 55.863281 C 155.226562 54.609375 152.40625 53.429688 149.589844 52.210938 L 151.128906 50.941406 C 151.804688 55.238281 152.214844 59.558594 153.519531 63.683594 C 154.171875 65.734375 155.054688 67.714844 156.207031 69.527344 C 157.359375 71.339844 158.816406 72.9375 160.410156 74.292969 C 163.65625 76.957031 167.460938 78.609375 171.597656 79.320312 C 175.730469 80.054688 180.046875 79.882812 184.410156 79.523438 L 184.464844 79.78125 " fill-opacity="1" fill-rule="nonzero"></path><path fill="#000000" d="M 183.59375 63.25 C 184.675781 60.808594 186.167969 58.546875 187.90625 56.492188 C 189.640625 54.429688 191.628906 52.578125 193.804688 50.96875 C 195.972656 49.355469 198.421875 48.144531 200.925781 47.167969 C 203.441406 46.210938 205.96875 45.390625 208.519531 44.636719 L 208.988281 44.496094 L 209.035156 44.996094 C 209.363281 48.722656 209.460938 52.542969 208.765625 56.3125 C 208.058594 60.070312 206.621094 63.695312 204.664062 67.019531 C 202.667969 70.332031 199.96875 73.1875 196.917969 75.5 C 193.855469 77.804688 190.371094 79.527344 186.71875 80.4375 L 186.621094 80.195312 C 189.875 78.371094 192.835938 76.226562 195.472656 73.777344 C 198.117188 71.332031 200.371094 68.542969 202.296875 65.554688 C 204.257812 62.578125 205.699219 59.269531 206.734375 55.824219 C 207.785156 52.390625 208.5 48.726562 208.222656 45.0625 L 208.734375 45.417969 C 206.207031 46.070312 203.792969 47.136719 201.574219 48.488281 C 199.34375 49.828125 197.269531 51.355469 195.195312 52.855469 C 193.121094 54.367188 191.144531 56.007812 189.253906 57.765625 C 187.367188 59.53125 185.585938 61.417969 183.8125 63.390625 L 183.59375 63.25 " fill-opacity="1" fill-rule="nonzero"></path><path fill="#000000" d="M 199.136719 120.648438 C 197.617188 117.691406 195.863281 114.96875 193.773438 112.53125 C 191.695312 110.082031 189.316406 107.945312 186.769531 106.007812 C 184.238281 104.066406 181.492188 102.238281 178.410156 101.125 C 175.335938 100.007812 172.003906 99.609375 168.777344 99.921875 L 169.371094 98.988281 C 170.859375 101.828125 172.621094 104.492188 174.421875 107.09375 C 176.222656 109.703125 178.316406 112.089844 180.449219 114.414062 C 184.734375 119.058594 189.574219 123.1875 194.929688 126.792969 L 195.09375 126.90625 L 195.125 127.011719 L 195.390625 127.964844 L 195.101562 127.761719 C 195.628906 127.832031 196.152344 127.925781 196.679688 128.015625 L 196.667969 128.277344 C 196.136719 128.320312 195.609375 128.375 195.078125 128.402344 L 194.902344 128.414062 L 194.789062 128.199219 L 194.332031 127.324219 L 194.527344 127.546875 C 188.453125 125.0625 182.921875 121.144531 178.398438 116.316406 C 176.125 113.90625 174.191406 111.195312 172.421875 108.414062 C 170.648438 105.625 169.28125 102.601562 168.152344 99.527344 L 167.792969 98.550781 L 168.746094 98.59375 C 172.144531 98.753906 175.445312 99.375 178.679688 100.277344 C 181.90625 101.175781 185.148438 102.34375 188.039062 104.199219 C 190.914062 106.054688 193.398438 108.515625 195.367188 111.304688 C 197.320312 114.097656 198.789062 117.253906 199.382812 120.566406 L 199.136719 120.648438 " fill-opacity="1" fill-rule="nonzero"></path><path fill="#000000" d="M 191.84375 217.699219 C 191.167969 215.527344 191.113281 213.132812 191.578125 210.847656 C 192.039062 208.554688 193.011719 206.371094 194.285156 204.414062 C 196.835938 200.496094 200.546875 197.339844 204.773438 195.414062 C 208.992188 193.5 213.464844 192.582031 217.828125 191.539062 C 222.1875 190.492188 226.542969 189.332031 230.640625 187.632812 C 234.707031 185.902344 238.578125 183.734375 241.8125 180.933594 C 245.03125 178.117188 247.378906 174.476562 248.246094 170.398438 C 249.203125 166.332031 248.761719 161.964844 247.78125 157.714844 C 246.785156 153.441406 245.199219 149.253906 243.6875 145.023438 L 243.925781 144.914062 C 246.222656 148.78125 248.28125 152.8125 249.765625 157.152344 C 251.203125 161.480469 251.945312 166.269531 250.972656 170.996094 C 250.472656 173.335938 249.558594 175.621094 248.210938 177.605469 C 246.878906 179.597656 245.222656 181.328125 243.40625 182.808594 C 239.765625 185.792969 235.472656 187.683594 231.125 188.980469 C 226.761719 190.289062 222.351562 191.117188 218.042969 192.355469 C 213.738281 193.582031 209.554688 195.230469 205.753906 197.355469 C 201.957031 199.414062 198.535156 202.132812 195.953125 205.566406 C 193.398438 208.972656 191.710938 213.167969 192.101562 217.652344 L 191.84375 217.699219 " fill-opacity="1" fill-rule="nonzero"></path><path fill="#000000" d="M 244.085938 147.304688 C 243.53125 144.292969 243.683594 141.15625 244.285156 138.121094 C 244.917969 135.09375 245.992188 132.125 247.574219 129.453125 C 249.179688 126.78125 251.304688 124.480469 253.53125 122.394531 C 255.746094 120.285156 258.085938 118.34375 260.617188 116.597656 L 261.347656 116.09375 L 261.492188 117.039062 C 262.015625 120.398438 262.355469 123.839844 262.085938 127.273438 C 261.820312 130.691406 261.316406 134.132812 260.289062 137.429688 C 258.246094 144.007812 254.542969 150.160156 249.398438 154.636719 L 249.203125 154.464844 C 252.980469 148.871094 255.769531 142.898438 257.609375 136.621094 C 258.527344 133.492188 259.328125 130.304688 259.722656 127.039062 C 260.109375 123.789062 260.460938 120.484375 260.335938 117.152344 L 261.214844 117.59375 C 258.566406 118.933594 256.179688 120.816406 254.246094 123.070312 C 252.324219 125.347656 250.871094 127.949219 249.5625 130.546875 C 248.234375 133.140625 247.058594 135.808594 246.207031 138.609375 C 245.320312 141.402344 244.75 144.296875 244.34375 147.300781 L 244.085938 147.304688 " fill-opacity="1" fill-rule="nonzero"></path><path fill="#000000" d="M 243.238281 145.296875 C 240.957031 143.941406 238.679688 142.726562 236.324219 141.71875 C 233.972656 140.695312 231.546875 139.90625 229.085938 139.269531 C 226.625 138.644531 224.128906 138.007812 221.546875 137.746094 C 218.96875 137.445312 216.332031 137.644531 213.816406 138.277344 L 214.09375 137.621094 C 216 140.441406 218.363281 142.90625 220.785156 145.207031 C 223.179688 147.542969 225.796875 149.621094 228.589844 151.375 C 231.378906 153.140625 234.300781 154.675781 237.433594 155.75 C 240.558594 156.832031 243.859375 157.480469 247.296875 157.6875 L 247.320312 157.949219 C 243.925781 158.703125 240.300781 158.652344 236.835938 157.871094 C 233.367188 157.09375 230.03125 155.671875 227.074219 153.710938 C 224.117188 151.746094 221.492188 149.347656 219.179688 146.722656 C 216.894531 144.058594 215.078125 141.0625 213.351562 138.082031 L 213.039062 137.535156 L 213.628906 137.425781 C 216.253906 136.941406 218.890625 136.648438 221.574219 136.453125 C 224.25 136.296875 227.003906 136.363281 229.648438 137.007812 C 232.289062 137.636719 234.832031 138.679688 237.179688 140.019531 C 239.519531 141.375 241.671875 143.0625 243.40625 145.097656 L 243.238281 145.296875 " fill-opacity="1" fill-rule="nonzero"></path><path fill="#000000" d="M 194.691406 207.570312 C 197.304688 209.195312 199.71875 211.019531 202.199219 212.664062 C 204.671875 214.328125 207.21875 215.746094 209.839844 217.019531 C 212.363281 218.285156 215.40625 218.859375 218.296875 218.089844 C 221.191406 217.382812 223.691406 215.535156 225.613281 213.367188 L 225.367188 214.1875 C 224.535156 211.785156 223 209.714844 221.046875 208.101562 C 219.082031 206.503906 216.75 205.359375 214.335938 204.550781 C 211.875 203.757812 209.265625 203.3125 206.589844 203.039062 C 203.914062 202.757812 201.167969 202.628906 198.410156 202.371094 L 198.394531 202.113281 C 201.109375 201.5625 203.847656 201.140625 206.652344 201.035156 C 209.449219 200.9375 212.332031 201.140625 215.128906 201.925781 C 217.957031 202.699219 220.578125 204.179688 222.734375 206.199219 C 224.890625 208.179688 226.597656 210.839844 227.042969 213.785156 L 227.125 214.34375 L 226.800781 214.609375 C 224.335938 216.609375 221.488281 218.023438 218.503906 218.863281 C 215.53125 219.675781 212.214844 219.925781 209.097656 218.9375 C 206.046875 218.03125 203.367188 216.257812 200.96875 214.324219 C 198.574219 212.355469 196.433594 210.164062 194.515625 207.765625 L 194.691406 207.570312 " fill-opacity="1" fill-rule="nonzero"></path><path fill="#000000" d="M 179.8125 201.359375 C 177.257812 200.347656 174.738281 199.421875 172.179688 198.648438 C 169.625 197.878906 167.035156 197.277344 164.425781 196.8125 C 161.816406 196.355469 159.1875 195.863281 156.503906 195.65625 C 153.820312 195.402344 151.097656 195.574219 148.460938 196.140625 L 148.792969 195.664062 C 149.464844 199.21875 151.734375 202.203125 154.375 204.441406 C 157.003906 206.742188 160.164062 208.417969 163.5 209.332031 C 166.863281 210.277344 170.390625 210.726562 173.988281 210.753906 C 177.582031 210.800781 181.230469 210.515625 184.925781 210.210938 L 184.984375 210.464844 C 181.488281 211.722656 177.84375 212.625 174.078125 212.976562 C 170.328125 213.3125 166.417969 213.148438 162.710938 212.003906 C 158.996094 210.832031 155.566406 208.78125 152.878906 205.992188 C 150.21875 203.171875 148.5 199.535156 147.972656 195.800781 L 147.914062 195.390625 L 148.304688 195.324219 C 151.019531 194.882812 153.738281 194.550781 156.5 194.277344 C 159.257812 194.050781 162.078125 194.027344 164.828125 194.511719 C 167.578125 194.984375 170.269531 195.792969 172.828125 196.886719 C 175.382812 197.984375 177.808594 199.382812 179.945312 201.132812 L 179.8125 201.359375 " fill-opacity="1" fill-rule="nonzero"></path><path fill="#000000" d="M 171.625 222.894531 C 173.3125 222.804688 174.714844 223.113281 176.203125 223.640625 C 177.644531 224.1875 179.113281 225.070312 180.132812 226.605469 C 180.65625 227.351562 180.933594 228.316406 180.988281 229.257812 C 180.984375 230.199219 180.804688 231.117188 180.433594 231.886719 C 179.734375 233.460938 178.640625 234.605469 177.375 235.511719 C 176.738281 235.96875 176.054688 236.394531 175.222656 236.617188 C 174.8125 236.699219 174.335938 236.746094 173.910156 236.574219 C 173.492188 236.414062 173.136719 236.152344 172.851562 235.855469 C 171.785156 234.640625 171.058594 233.222656 170.613281 231.765625 C 170.40625 231.03125 170.285156 230.289062 170.269531 229.539062 C 170.230469 228.792969 170.238281 228.046875 170.3125 227.300781 C 170.335938 226.929688 170.398438 226.554688 170.460938 226.183594 L 170.570312 225.621094 L 170.757812 224.976562 C 171.015625 224.117188 171.378906 223.394531 171.625 222.894531 Z M 171.765625 223.113281 C 171.835938 224.039062 172.023438 224.742188 172.109375 225.308594 L 172.34375 227.285156 C 172.492188 228.671875 172.703125 230.035156 172.761719 231.398438 C 172.835938 232.734375 172.75 234.242188 173.488281 235.304688 C 173.859375 235.808594 174.429688 236.015625 174.972656 235.765625 C 175.523438 235.546875 175.984375 235.03125 176.371094 234.492188 C 176.570312 234.226562 176.742188 233.921875 176.921875 233.640625 C 177.070312 233.332031 177.230469 233.035156 177.394531 232.75 C 177.679688 232.167969 177.972656 231.597656 178.113281 231.035156 C 178.289062 230.472656 178.292969 229.9375 178.257812 229.449219 C 178.140625 228.972656 178.046875 228.511719 177.75 228.066406 C 177.246094 227.144531 176.3125 226.25 175.230469 225.453125 C 174.171875 224.632812 172.851562 223.960938 171.765625 223.113281 " fill-opacity="1" fill-rule="nonzero"></path><path fill="#000000" d="M 182.902344 164.679688 C 182 160.507812 178.773438 157.550781 175.214844 155.824219 C 173.394531 154.988281 171.476562 154.378906 169.496094 154.152344 C 167.496094 153.90625 165.457031 153.882812 163.394531 153.96875 C 159.265625 154.121094 155.042969 154.746094 150.839844 155.410156 C 148.734375 155.746094 146.605469 156.050781 144.433594 156.0625 C 142.277344 156.074219 140.03125 155.8125 137.964844 154.898438 C 135.917969 154.023438 133.9375 152.550781 132.832031 150.398438 C 132.25 149.355469 131.949219 148.179688 131.773438 147.003906 C 131.648438 145.824219 131.71875 144.648438 131.894531 143.515625 C 132.710938 138.988281 134.953125 135.1875 136.601562 131.445312 C 139.953125 124.003906 141.019531 115.53125 139.695312 107.171875 L 139.949219 107.105469 C 142.921875 115.136719 142.589844 124.46875 139.164062 132.558594 C 137.449219 136.554688 135.164062 140.117188 134.320312 143.960938 C 134.125 144.914062 134.050781 145.859375 134.082031 146.792969 C 134.164062 147.714844 134.351562 148.625 134.726562 149.484375 C 135.429688 151.195312 136.851562 152.636719 138.59375 153.613281 C 140.347656 154.574219 142.371094 155.113281 144.449219 155.175781 C 146.527344 155.273438 148.621094 154.980469 150.6875 154.574219 C 154.828125 153.730469 158.878906 152.351562 163.21875 151.800781 C 165.382812 151.546875 167.613281 151.511719 169.816406 151.859375 C 172.046875 152.164062 174.207031 152.945312 176.160156 154.03125 C 178.085938 155.164062 179.871094 156.609375 181.140625 158.464844 C 182.441406 160.28125 183.183594 162.496094 183.164062 164.652344 L 182.902344 164.679688 " fill-opacity="1" fill-rule="nonzero"></path><path fill="#000000" d="M 138.167969 107.226562 C 137.195312 104.410156 137.167969 101.265625 137.804688 98.296875 C 138.441406 95.316406 139.796875 92.464844 141.777344 90.136719 C 143.78125 87.8125 146.328125 86.070312 148.964844 84.71875 C 150.300781 84.046875 151.632812 83.441406 153.089844 82.980469 C 153.824219 82.78125 154.605469 82.625 155.449219 82.695312 C 156.285156 82.757812 157.179688 83.179688 157.773438 83.835938 C 158.382812 84.480469 158.75 85.238281 159.046875 85.960938 C 159.335938 86.675781 159.574219 87.398438 159.769531 88.144531 C 160.15625 89.628906 160.328125 91.171875 160.335938 92.710938 C 160.355469 95.789062 159.734375 98.917969 158.339844 101.710938 C 155.53125 107.296875 149.890625 111.28125 143.964844 111.902344 L 143.898438 111.652344 C 149.269531 109.386719 153.554688 105.410156 155.828125 100.496094 C 156.972656 98.054688 157.71875 95.390625 157.871094 92.65625 C 157.945312 91.289062 157.886719 89.914062 157.707031 88.546875 C 157.488281 87.203125 157.316406 85.714844 156.671875 84.753906 C 156.070312 83.78125 154.660156 83.511719 153.304688 83.84375 C 151.945312 84.15625 150.609375 84.757812 149.378906 85.457031 C 146.898438 86.910156 145.058594 89.183594 143.511719 91.457031 C 140.300781 95.988281 138.433594 101.339844 138.429688 107.183594 L 138.167969 107.226562 " fill-opacity="1" fill-rule="nonzero"></path><path fill="#000000" d="M 136.394531 102.261719 C 134.949219 100.441406 133.488281 98.742188 131.882812 97.195312 C 130.304688 95.632812 128.578125 94.25 126.789062 92.960938 C 125 91.683594 123.191406 90.355469 121.164062 89.339844 C 119.15625 88.308594 116.921875 87.710938 114.667969 87.535156 L 115.183594 87.066406 C 115.421875 89.90625 116.394531 92.601562 117.550781 95.105469 C 118.679688 97.632812 120.238281 99.925781 122.066406 101.945312 C 123.886719 103.96875 125.964844 105.785156 128.304688 107.28125 C 130.644531 108.777344 133.203125 109.992188 135.972656 110.902344 L 135.933594 111.164062 C 132.980469 111.179688 129.988281 110.476562 127.253906 109.199219 C 124.515625 107.917969 121.988281 106.097656 119.972656 103.792969 C 117.964844 101.484375 116.46875 98.773438 115.460938 95.933594 C 114.476562 93.070312 114.21875 90.03125 114.265625 87.097656 L 114.277344 86.542969 L 114.78125 86.628906 C 117.089844 87.015625 119.339844 87.574219 121.609375 88.207031 C 123.867188 88.859375 126.136719 89.714844 128.117188 91.054688 C 130.101562 92.382812 131.84375 94.058594 133.320312 95.917969 C 134.773438 97.792969 135.960938 99.886719 136.628906 102.140625 L 136.394531 102.261719 " fill-opacity="1" fill-rule="nonzero"></path><path fill="#000000" d="M 141.300781 127.339844 C 142.453125 125.734375 143.929688 124.375 145.566406 123.242188 C 147.199219 122.101562 149.003906 121.199219 150.890625 120.542969 C 152.78125 119.875 154.796875 119.625 156.78125 119.609375 C 158.773438 119.597656 160.71875 119.683594 162.667969 119.808594 L 163.128906 119.839844 L 163.027344 120.300781 C 162.429688 123.015625 161.6875 125.777344 160.355469 128.324219 C 159 130.847656 157.132812 133.097656 154.980469 135.015625 C 152.804688 136.917969 150.21875 138.339844 147.5 139.265625 C 144.777344 140.183594 141.867188 140.542969 139.074219 140.1875 L 139.0625 139.925781 C 141.765625 139.285156 144.28125 138.363281 146.636719 137.183594 C 149 136.011719 151.15625 134.527344 153.183594 132.890625 C 155.226562 131.269531 157.035156 129.347656 158.605469 127.222656 C 160.199219 125.132812 161.636719 122.765625 162.242188 120.125 L 162.601562 120.613281 C 160.714844 120.425781 158.796875 120.613281 156.972656 121.089844 C 155.144531 121.5625 153.398438 122.1875 151.648438 122.761719 C 149.898438 123.339844 148.1875 124.039062 146.5 124.835938 C 144.8125 125.640625 143.171875 126.554688 141.476562 127.53125 L 141.300781 127.339844 " fill-opacity="1" fill-rule="nonzero"></path></svg><style>@media (prefers-color-scheme: light) { :root { filter: none; } }
</style></svg>