<svg xmlns="http://www.w3.org/2000/svg" xmlns:xlink="http://www.w3.org/1999/xlink" width="100" zoomAndPan="magnify" viewBox="0 0 75 30.000001" height="40" preserveAspectRatio="xMidYMid meet" version="1.0"><defs><g/><clipPath id="ccb972654e"><path d="M 7 4 L 11 4 L 11 7 L 7 7 Z M 7 4 " clip-rule="nonzero"/></clipPath><clipPath id="eeb8c7b846"><path d="M 7.089844 3.761719 L 10.6875 4.222656 L 10.042969 9.261719 L 6.441406 8.800781 Z M 7.089844 3.761719 " clip-rule="nonzero"/></clipPath><clipPath id="f309c73327"><path d="M 7.089844 3.761719 L 10.6875 4.222656 L 10.042969 9.261719 L 6.441406 8.800781 Z M 7.089844 3.761719 " clip-rule="nonzero"/></clipPath><clipPath id="0d971e387e"><path d="M 6 6 L 9 6 L 9 9 L 6 9 Z M 6 6 " clip-rule="nonzero"/></clipPath><clipPath id="418edd0975"><path d="M 7.089844 3.761719 L 10.6875 4.222656 L 10.042969 9.261719 L 6.441406 8.800781 Z M 7.089844 3.761719 " clip-rule="nonzero"/></clipPath><clipPath id="fb0b6ce944"><path d="M 7.089844 3.761719 L 10.6875 4.222656 L 10.042969 9.261719 L 6.441406 8.800781 Z M 7.089844 3.761719 " clip-rule="nonzero"/></clipPath></defs><g clip-path="url(#ccb972654e)"><g clip-path="url(#eeb8c7b846)"><g clip-path="url(#f309c73327)"><path fill="#ffffff" d="M 10.683594 4.242188 C 10.683594 4.238281 10.683594 4.238281 10.679688 4.234375 C 10.679688 4.234375 10.679688 4.234375 10.679688 4.230469 C 10.679688 4.230469 10.679688 4.230469 10.675781 4.230469 C 10.675781 4.230469 10.671875 4.226562 10.671875 4.226562 C 10.667969 4.226562 10.667969 4.226562 10.667969 4.226562 C 10.664062 4.226562 10.660156 4.226562 10.65625 4.226562 L 7.574219 4.96875 C 7.5625 4.972656 7.558594 4.980469 7.554688 4.988281 C 7.554688 4.996094 7.558594 5.003906 7.566406 5.011719 L 8.371094 5.480469 L 8.804688 6.566406 C 8.804688 6.566406 8.804688 6.570312 8.804688 6.570312 C 8.808594 6.570312 8.808594 6.574219 8.8125 6.578125 C 8.816406 6.582031 8.820312 6.582031 8.824219 6.582031 C 8.824219 6.582031 8.824219 6.582031 8.828125 6.582031 C 8.828125 6.582031 8.832031 6.582031 8.835938 6.582031 C 8.839844 6.578125 8.84375 6.578125 8.84375 6.574219 L 9.285156 6.015625 L 10.046875 6.460938 C 10.050781 6.464844 10.050781 6.464844 10.054688 6.464844 C 10.058594 6.464844 10.0625 6.464844 10.066406 6.464844 C 10.074219 6.460938 10.078125 6.457031 10.082031 6.449219 L 10.683594 4.253906 C 10.6875 4.25 10.6875 4.246094 10.683594 4.242188 Z M 10.496094 4.3125 L 8.390625 5.441406 L 7.636719 5 Z M 10.546875 4.335938 L 9.082031 5.863281 C 9.082031 5.867188 9.082031 5.867188 9.078125 5.867188 C 9.078125 5.871094 9.078125 5.871094 9.078125 5.871094 L 8.828125 6.496094 L 8.417969 5.476562 Z M 8.90625 6.421875 L 9.109375 5.914062 L 9.246094 5.992188 Z M 10.042969 6.410156 L 9.132812 5.875 L 10.617188 4.328125 Z M 10.042969 6.410156 " fill-opacity="1" fill-rule="nonzero"/></g></g></g><g clip-path="url(#0d971e387e)"><g clip-path="url(#418edd0975)"><g clip-path="url(#fb0b6ce944)"><path fill="#ffffff" d="M 8.6875 6.8125 C 8.675781 6.808594 8.664062 6.816406 8.660156 6.832031 C 8.660156 6.835938 8.566406 7.25 8.117188 7.53125 C 7.882812 7.675781 7.671875 7.71875 7.488281 7.703125 C 7.574219 7.582031 7.625 7.4375 7.628906 7.289062 C 7.636719 7.144531 7.601562 7.023438 7.53125 6.953125 C 7.433594 6.851562 7.289062 6.792969 7.152344 6.792969 C 7.058594 6.796875 6.984375 6.824219 6.933594 6.878906 C 6.863281 6.953125 6.796875 7.105469 6.816406 7.265625 C 6.828125 7.394531 6.894531 7.5 7 7.570312 C 7.105469 7.644531 7.242188 7.710938 7.40625 7.738281 C 7.375 7.773438 7.34375 7.804688 7.3125 7.832031 C 7.242188 7.886719 7.164062 7.941406 7.082031 7.996094 C 6.804688 8.183594 6.496094 8.398438 6.449219 8.769531 C 6.445312 8.78125 6.457031 8.792969 6.46875 8.796875 C 6.480469 8.796875 6.492188 8.789062 6.496094 8.777344 C 6.539062 8.421875 6.828125 8.222656 7.105469 8.035156 C 7.191406 7.976562 7.269531 7.921875 7.339844 7.867188 C 7.382812 7.832031 7.421875 7.789062 7.457031 7.746094 C 7.652344 7.769531 7.882812 7.726562 8.140625 7.570312 C 8.609375 7.277344 8.703125 6.859375 8.707031 6.839844 C 8.710938 6.828125 8.703125 6.816406 8.6875 6.8125 Z M 7.4375 7.699219 C 7.273438 7.675781 7.132812 7.609375 7.023438 7.535156 C 6.90625 7.453125 6.871094 7.339844 6.863281 7.261719 C 6.84375 7.113281 6.902344 6.976562 6.964844 6.910156 C 7.007812 6.863281 7.074219 6.839844 7.152344 6.839844 C 7.171875 6.839844 7.191406 6.839844 7.210938 6.84375 C 7.316406 6.855469 7.421875 6.90625 7.5 6.984375 C 7.558594 7.042969 7.589844 7.15625 7.585938 7.285156 C 7.578125 7.433594 7.523438 7.582031 7.4375 7.699219 Z M 7.4375 7.699219 " fill-opacity="1" fill-rule="nonzero"/></g></g></g><g fill="#ffffff" fill-opacity="1"><g transform="translate(16.311405, 9.04085)"><g><path d="M 0.28125 -1.09375 L 0.28125 -0.6875 L 0.796875 -0.6875 L 0.796875 -0.5625 L 0.28125 -0.5625 L 0.28125 0 L 0.125 0 L 0.125 -1.21875 L 0.859375 -1.21875 L 0.859375 -1.09375 Z M 0.28125 -1.09375 "/></g></g></g><g fill="#ffffff" fill-opacity="1"><g transform="translate(17.216195, 9.04085)"><g><path d="M 0.28125 -1.09375 L 0.28125 -0.6875 L 0.8125 -0.6875 L 0.8125 -0.5625 L 0.28125 -0.5625 L 0.28125 -0.140625 L 0.890625 -0.140625 L 0.890625 0 L 0.125 0 L 0.125 -1.21875 L 0.890625 -1.21875 L 0.890625 -1.09375 Z M 0.28125 -1.09375 "/></g></g></g><g fill="#ffffff" fill-opacity="1"><g transform="translate(18.213919, 9.04085)"><g><path d="M 0.5 -0.484375 L 0.28125 -0.484375 L 0.28125 0 L 0.125 0 L 0.125 -1.21875 L 0.546875 -1.21875 C 0.648438 -1.21875 0.734375 -1.195312 0.796875 -1.15625 C 0.859375 -1.125 0.898438 -1.082031 0.921875 -1.03125 C 0.953125 -0.976562 0.96875 -0.921875 0.96875 -0.859375 C 0.96875 -0.773438 0.941406 -0.695312 0.890625 -0.625 C 0.835938 -0.5625 0.757812 -0.519531 0.65625 -0.5 L 0.984375 0 L 0.8125 0 Z M 0.28125 -0.625 L 0.53125 -0.625 C 0.613281 -0.625 0.679688 -0.640625 0.734375 -0.671875 C 0.796875 -0.703125 0.828125 -0.765625 0.828125 -0.859375 C 0.828125 -0.941406 0.796875 -1 0.734375 -1.03125 C 0.679688 -1.070312 0.613281 -1.09375 0.53125 -1.09375 L 0.28125 -1.09375 Z M 0.28125 -0.625 "/></g></g></g><g fill="#ffffff" fill-opacity="1"><g transform="translate(19.274768, 9.04085)"><g><path d="M 0.125 -1.21875 L 0.296875 -1.21875 L 0.953125 -0.234375 L 0.96875 -0.234375 L 0.96875 -1.21875 L 1.109375 -1.21875 L 1.109375 0 L 0.9375 0 L 0.28125 -0.96875 L 0.28125 0 L 0.125 0 Z M 0.125 -1.21875 "/></g></g></g><g fill="#ffffff" fill-opacity="1"><g transform="translate(20.521485, 9.04085)"><g><path d="M 0.84375 -0.359375 L 0.34375 -0.359375 L 0.21875 0 L 0.0625 0 L 0.515625 -1.21875 L 0.671875 -1.21875 L 1.125 0 L 0.96875 0 Z M 0.796875 -0.484375 L 0.59375 -1.03125 L 0.390625 -0.484375 Z M 0.796875 -0.484375 "/></g></g></g><g fill="#ffffff" fill-opacity="1"><g transform="translate(21.713845, 9.04085)"><g><path d="M 0.125 -1.21875 L 0.296875 -1.21875 L 0.953125 -0.234375 L 0.96875 -0.234375 L 0.96875 -1.21875 L 1.109375 -1.21875 L 1.109375 0 L 0.9375 0 L 0.28125 -0.96875 L 0.28125 0 L 0.125 0 Z M 0.125 -1.21875 "/></g></g></g><g fill="#ffffff" fill-opacity="1"><g transform="translate(22.960562, 9.04085)"><g><path d="M 0.125 -1.21875 L 0.578125 -1.21875 C 0.691406 -1.21875 0.785156 -1.191406 0.859375 -1.140625 C 0.941406 -1.097656 1.003906 -1.03125 1.046875 -0.9375 C 1.097656 -0.84375 1.125 -0.734375 1.125 -0.609375 C 1.125 -0.484375 1.097656 -0.375 1.046875 -0.28125 C 1.003906 -0.195312 0.941406 -0.128906 0.859375 -0.078125 C 0.773438 -0.0234375 0.679688 0 0.578125 0 L 0.125 0 Z M 0.5625 -0.140625 C 0.675781 -0.140625 0.769531 -0.179688 0.84375 -0.265625 C 0.925781 -0.347656 0.96875 -0.460938 0.96875 -0.609375 C 0.96875 -0.765625 0.929688 -0.882812 0.859375 -0.96875 C 0.785156 -1.050781 0.6875 -1.09375 0.5625 -1.09375 L 0.28125 -1.09375 L 0.28125 -0.140625 Z M 0.5625 -0.140625 "/></g></g></g><g fill="#ffffff" fill-opacity="1"><g transform="translate(24.165195, 9.04085)"><g><path d="M 0.640625 0.015625 C 0.523438 0.015625 0.425781 -0.0078125 0.34375 -0.0625 C 0.257812 -0.125 0.195312 -0.203125 0.15625 -0.296875 C 0.113281 -0.390625 0.09375 -0.5 0.09375 -0.625 C 0.09375 -0.738281 0.113281 -0.84375 0.15625 -0.9375 C 0.195312 -1.039062 0.257812 -1.117188 0.34375 -1.171875 C 0.425781 -1.222656 0.523438 -1.25 0.640625 -1.25 C 0.753906 -1.25 0.851562 -1.222656 0.9375 -1.171875 C 1.019531 -1.117188 1.082031 -1.039062 1.125 -0.9375 C 1.164062 -0.84375 1.1875 -0.734375 1.1875 -0.609375 C 1.1875 -0.492188 1.164062 -0.390625 1.125 -0.296875 C 1.082031 -0.203125 1.019531 -0.125 0.9375 -0.0625 C 0.851562 -0.0078125 0.753906 0.015625 0.640625 0.015625 Z M 0.640625 -0.125 C 0.722656 -0.125 0.789062 -0.144531 0.84375 -0.1875 C 0.90625 -0.226562 0.953125 -0.285156 0.984375 -0.359375 C 1.015625 -0.429688 1.03125 -0.519531 1.03125 -0.625 C 1.03125 -0.71875 1.015625 -0.800781 0.984375 -0.875 C 0.953125 -0.945312 0.90625 -1.003906 0.84375 -1.046875 C 0.789062 -1.085938 0.722656 -1.109375 0.640625 -1.109375 C 0.554688 -1.109375 0.484375 -1.085938 0.421875 -1.046875 C 0.367188 -1.003906 0.328125 -0.945312 0.296875 -0.875 C 0.265625 -0.800781 0.25 -0.71875 0.25 -0.625 C 0.25 -0.519531 0.265625 -0.429688 0.296875 -0.359375 C 0.328125 -0.285156 0.367188 -0.226562 0.421875 -0.1875 C 0.484375 -0.144531 0.554688 -0.125 0.640625 -0.125 Z M 0.640625 -0.125 "/></g></g></g><g fill="#ffffff" fill-opacity="1"><g transform="translate(25.453995, 9.04085)"><g/></g></g><g fill="#ffffff" fill-opacity="1"><g transform="translate(25.857293, 9.04085)"><g><path d="M 0.28125 -1.09375 L 0.28125 -0.6875 L 0.8125 -0.6875 L 0.8125 -0.5625 L 0.28125 -0.5625 L 0.28125 -0.140625 L 0.890625 -0.140625 L 0.890625 0 L 0.125 0 L 0.125 -1.21875 L 0.890625 -1.21875 L 0.890625 -1.09375 Z M 0.28125 -1.09375 "/></g></g></g><g fill="#ffffff" fill-opacity="1"><g transform="translate(26.855017, 9.04085)"><g><path d="M 0.5 -0.484375 L 0.28125 -0.484375 L 0.28125 0 L 0.125 0 L 0.125 -1.21875 L 0.546875 -1.21875 C 0.648438 -1.21875 0.734375 -1.195312 0.796875 -1.15625 C 0.859375 -1.125 0.898438 -1.082031 0.921875 -1.03125 C 0.953125 -0.976562 0.96875 -0.921875 0.96875 -0.859375 C 0.96875 -0.773438 0.941406 -0.695312 0.890625 -0.625 C 0.835938 -0.5625 0.757812 -0.519531 0.65625 -0.5 L 0.984375 0 L 0.8125 0 Z M 0.28125 -0.625 L 0.53125 -0.625 C 0.613281 -0.625 0.679688 -0.640625 0.734375 -0.671875 C 0.796875 -0.703125 0.828125 -0.765625 0.828125 -0.859375 C 0.828125 -0.941406 0.796875 -1 0.734375 -1.03125 C 0.679688 -1.070312 0.613281 -1.09375 0.53125 -1.09375 L 0.28125 -1.09375 Z M 0.28125 -0.625 "/></g></g></g><g fill="#ffffff" fill-opacity="1"><g transform="translate(27.915866, 9.04085)"><g><path d="M 0.84375 -0.359375 L 0.34375 -0.359375 L 0.21875 0 L 0.0625 0 L 0.515625 -1.21875 L 0.671875 -1.21875 L 1.125 0 L 0.96875 0 Z M 0.796875 -0.484375 L 0.59375 -1.03125 L 0.390625 -0.484375 Z M 0.796875 -0.484375 "/></g></g></g><g fill="#ffffff" fill-opacity="1"><g transform="translate(29.108225, 9.04085)"><g><path d="M 0.09375 -0.140625 L 0.78125 -1.078125 L 0.09375 -1.078125 L 0.09375 -1.21875 L 0.953125 -1.21875 L 0.953125 -1.078125 L 0.28125 -0.140625 L 0.953125 -0.140625 L 0.953125 0 L 0.09375 0 Z M 0.09375 -0.140625 "/></g></g></g><g fill="#ffffff" fill-opacity="1"><g transform="translate(30.181349, 9.04085)"><g><path d="M 0.640625 0.015625 C 0.523438 0.015625 0.425781 -0.0078125 0.34375 -0.0625 C 0.257812 -0.125 0.195312 -0.203125 0.15625 -0.296875 C 0.113281 -0.390625 0.09375 -0.5 0.09375 -0.625 C 0.09375 -0.738281 0.113281 -0.84375 0.15625 -0.9375 C 0.195312 -1.039062 0.257812 -1.117188 0.34375 -1.171875 C 0.425781 -1.222656 0.523438 -1.25 0.640625 -1.25 C 0.753906 -1.25 0.851562 -1.222656 0.9375 -1.171875 C 1.019531 -1.117188 1.082031 -1.039062 1.125 -0.9375 C 1.164062 -0.84375 1.1875 -0.734375 1.1875 -0.609375 C 1.1875 -0.492188 1.164062 -0.390625 1.125 -0.296875 C 1.082031 -0.203125 1.019531 -0.125 0.9375 -0.0625 C 0.851562 -0.0078125 0.753906 0.015625 0.640625 0.015625 Z M 0.640625 -0.125 C 0.722656 -0.125 0.789062 -0.144531 0.84375 -0.1875 C 0.90625 -0.226562 0.953125 -0.285156 0.984375 -0.359375 C 1.015625 -0.429688 1.03125 -0.519531 1.03125 -0.625 C 1.03125 -0.71875 1.015625 -0.800781 0.984375 -0.875 C 0.953125 -0.945312 0.90625 -1.003906 0.84375 -1.046875 C 0.789062 -1.085938 0.722656 -1.109375 0.640625 -1.109375 C 0.554688 -1.109375 0.484375 -1.085938 0.421875 -1.046875 C 0.367188 -1.003906 0.328125 -0.945312 0.296875 -0.875 C 0.265625 -0.800781 0.25 -0.71875 0.25 -0.625 C 0.25 -0.519531 0.265625 -0.429688 0.296875 -0.359375 C 0.328125 -0.285156 0.367188 -0.226562 0.421875 -0.1875 C 0.484375 -0.144531 0.554688 -0.125 0.640625 -0.125 Z M 0.640625 -0.125 "/></g></g></g><g fill="#ffffff" fill-opacity="1"><g transform="translate(20.696893, 11.080923)"><g><path d="M 0.328125 0 L 0.09375 0 L 0.09375 -0.765625 L 0.34375 -0.765625 C 0.414062 -0.765625 0.476562 -0.75 0.53125 -0.71875 C 0.582031 -0.6875 0.617188 -0.640625 0.640625 -0.578125 C 0.671875 -0.523438 0.6875 -0.457031 0.6875 -0.375 C 0.6875 -0.300781 0.671875 -0.234375 0.640625 -0.171875 C 0.617188 -0.117188 0.578125 -0.078125 0.515625 -0.046875 C 0.460938 -0.015625 0.398438 0 0.328125 0 Z M 0.1875 -0.078125 L 0.328125 -0.078125 C 0.421875 -0.078125 0.488281 -0.101562 0.53125 -0.15625 C 0.570312 -0.21875 0.59375 -0.289062 0.59375 -0.375 C 0.59375 -0.46875 0.570312 -0.539062 0.53125 -0.59375 C 0.488281 -0.644531 0.421875 -0.671875 0.328125 -0.671875 L 0.1875 -0.671875 Z M 0.1875 -0.078125 "/></g></g></g><g fill="#ffffff" fill-opacity="1"><g transform="translate(21.453366, 11.080923)"><g><path d="M 0.09375 0 L 0.09375 -0.765625 L 0.546875 -0.765625 L 0.546875 -0.671875 L 0.1875 -0.671875 L 0.1875 -0.421875 L 0.53125 -0.421875 L 0.53125 -0.34375 L 0.1875 -0.34375 L 0.1875 -0.078125 L 0.5625 -0.078125 L 0.5625 0 Z M 0.09375 0 "/></g></g></g><g fill="#ffffff" fill-opacity="1"><g transform="translate(22.082763, 11.080923)"><g><path d="M 0.125 -0.765625 L 0.34375 -0.125 L 0.359375 -0.125 L 0.578125 -0.765625 L 0.6875 -0.765625 L 0.40625 0 L 0.3125 0 L 0.03125 -0.765625 Z M 0.125 -0.765625 "/></g></g></g><g fill="#ffffff" fill-opacity="1"><g transform="translate(22.794386, 11.080923)"><g><path d="M 0.09375 0 L 0.09375 -0.765625 L 0.546875 -0.765625 L 0.546875 -0.671875 L 0.1875 -0.671875 L 0.1875 -0.421875 L 0.53125 -0.421875 L 0.53125 -0.34375 L 0.1875 -0.34375 L 0.1875 -0.078125 L 0.5625 -0.078125 L 0.5625 0 Z M 0.09375 0 "/></g></g></g><g fill="#ffffff" fill-opacity="1"><g transform="translate(23.423784, 11.080923)"><g><path d="M 0.09375 0 L 0.09375 -0.765625 L 0.1875 -0.765625 L 0.1875 -0.078125 L 0.53125 -0.078125 L 0.53125 0 Z M 0.09375 0 "/></g></g></g><g fill="#ffffff" fill-opacity="1"><g transform="translate(24.015806, 11.080923)"><g><path d="M 0.734375 -0.375 C 0.734375 -0.300781 0.71875 -0.234375 0.6875 -0.171875 C 0.65625 -0.109375 0.613281 -0.0625 0.5625 -0.03125 C 0.519531 0 0.46875 0.015625 0.40625 0.015625 C 0.332031 0.015625 0.269531 0 0.21875 -0.03125 C 0.175781 -0.0625 0.140625 -0.109375 0.109375 -0.171875 C 0.078125 -0.234375 0.0625 -0.300781 0.0625 -0.375 C 0.0625 -0.457031 0.078125 -0.523438 0.109375 -0.578125 C 0.140625 -0.640625 0.175781 -0.6875 0.21875 -0.71875 C 0.269531 -0.75 0.332031 -0.765625 0.40625 -0.765625 C 0.46875 -0.765625 0.519531 -0.75 0.5625 -0.71875 C 0.613281 -0.6875 0.65625 -0.640625 0.6875 -0.578125 C 0.71875 -0.523438 0.734375 -0.457031 0.734375 -0.375 Z M 0.640625 -0.375 C 0.640625 -0.445312 0.628906 -0.503906 0.609375 -0.546875 C 0.585938 -0.585938 0.554688 -0.617188 0.515625 -0.640625 C 0.484375 -0.671875 0.445312 -0.6875 0.40625 -0.6875 C 0.351562 -0.6875 0.304688 -0.671875 0.265625 -0.640625 C 0.234375 -0.617188 0.207031 -0.585938 0.1875 -0.546875 C 0.164062 -0.503906 0.15625 -0.445312 0.15625 -0.375 C 0.15625 -0.3125 0.164062 -0.253906 0.1875 -0.203125 C 0.207031 -0.160156 0.234375 -0.128906 0.265625 -0.109375 C 0.304688 -0.0859375 0.351562 -0.078125 0.40625 -0.078125 C 0.445312 -0.078125 0.484375 -0.0859375 0.515625 -0.109375 C 0.554688 -0.128906 0.585938 -0.160156 0.609375 -0.203125 C 0.628906 -0.253906 0.640625 -0.3125 0.640625 -0.375 Z M 0.640625 -0.375 "/></g></g></g><g fill="#ffffff" fill-opacity="1"><g transform="translate(24.81713, 11.080923)"><g><path d="M 0.09375 0 L 0.09375 -0.765625 L 0.34375 -0.765625 C 0.40625 -0.765625 0.453125 -0.753906 0.484375 -0.734375 C 0.523438 -0.710938 0.554688 -0.679688 0.578125 -0.640625 C 0.597656 -0.609375 0.609375 -0.566406 0.609375 -0.515625 C 0.609375 -0.472656 0.597656 -0.429688 0.578125 -0.390625 C 0.554688 -0.359375 0.523438 -0.332031 0.484375 -0.3125 C 0.453125 -0.289062 0.40625 -0.28125 0.34375 -0.28125 L 0.1875 -0.28125 L 0.1875 0 Z M 0.1875 -0.359375 L 0.34375 -0.359375 C 0.40625 -0.359375 0.445312 -0.375 0.46875 -0.40625 C 0.5 -0.4375 0.515625 -0.472656 0.515625 -0.515625 C 0.515625 -0.566406 0.5 -0.601562 0.46875 -0.625 C 0.445312 -0.65625 0.40625 -0.671875 0.34375 -0.671875 L 0.1875 -0.671875 Z M 0.1875 -0.359375 "/></g></g></g><g fill="#ffffff" fill-opacity="1"><g transform="translate(25.485398, 11.080923)"><g><path d="M 0.09375 0 L 0.09375 -0.765625 L 0.546875 -0.765625 L 0.546875 -0.671875 L 0.1875 -0.671875 L 0.1875 -0.421875 L 0.53125 -0.421875 L 0.53125 -0.34375 L 0.1875 -0.34375 L 0.1875 -0.078125 L 0.5625 -0.078125 L 0.5625 0 Z M 0.09375 0 "/></g></g></g><g fill="#ffffff" fill-opacity="1"><g transform="translate(26.114796, 11.080923)"><g><path d="M 0.09375 0 L 0.09375 -0.765625 L 0.34375 -0.765625 C 0.40625 -0.765625 0.453125 -0.753906 0.484375 -0.734375 C 0.523438 -0.710938 0.554688 -0.679688 0.578125 -0.640625 C 0.597656 -0.609375 0.609375 -0.570312 0.609375 -0.53125 C 0.609375 -0.476562 0.59375 -0.429688 0.5625 -0.390625 C 0.539062 -0.359375 0.507812 -0.332031 0.46875 -0.3125 L 0.640625 0 L 0.53125 0 L 0.375 -0.296875 C 0.363281 -0.296875 0.351562 -0.296875 0.34375 -0.296875 L 0.1875 -0.296875 L 0.1875 0 Z M 0.1875 -0.375 L 0.34375 -0.375 C 0.40625 -0.375 0.445312 -0.382812 0.46875 -0.40625 C 0.5 -0.4375 0.515625 -0.476562 0.515625 -0.53125 C 0.515625 -0.570312 0.5 -0.601562 0.46875 -0.625 C 0.445312 -0.65625 0.40625 -0.671875 0.34375 -0.671875 L 0.1875 -0.671875 Z M 0.1875 -0.375 "/></g></g></g><g fill="#ffffff" fill-opacity="1"><g transform="translate(26.787806, 11.080923)"><g/></g></g></svg>