<svg xmlns="http://www.w3.org/2000/svg" xmlns:xlink="http://www.w3.org/1999/xlink" width="150" zoomAndPan="magnify" viewBox="0 0 112.5 37.5" height="50" preserveAspectRatio="xMidYMid meet" version="1.0"><defs><g/><clipPath id="fcb797580c"><path d="M 8 4 L 26 4 L 26 18 L 8 18 Z M 8 4 " clip-rule="nonzero"/></clipPath><clipPath id="9ad5ffa0b6"><path d="M 5.917969 1.910156 L 25.089844 4.375 L 21.488281 32.394531 L 2.316406 29.929688 Z M 5.917969 1.910156 " clip-rule="nonzero"/></clipPath><clipPath id="905c519d45"><path d="M 5.917969 1.910156 L 25.089844 4.375 L 21.488281 32.394531 L 2.316406 29.929688 Z M 5.917969 1.910156 " clip-rule="nonzero"/></clipPath><clipPath id="b2d72c990c"><path d="M 2 18 L 15 18 L 15 30 L 2 30 Z M 2 18 " clip-rule="nonzero"/></clipPath><clipPath id="bec0744aea"><path d="M 5.917969 1.910156 L 25.089844 4.375 L 21.488281 32.394531 L 2.316406 29.929688 Z M 5.917969 1.910156 " clip-rule="nonzero"/></clipPath><clipPath id="475541c65e"><path d="M 5.917969 1.910156 L 25.089844 4.375 L 21.488281 32.394531 L 2.316406 29.929688 Z M 5.917969 1.910156 " clip-rule="nonzero"/></clipPath></defs><g clip-path="url(#fcb797580c)"><g clip-path="url(#9ad5ffa0b6)"><g clip-path="url(#905c519d45)"><path fill="#ffffff" d="M 25.066406 4.46875 C 25.066406 4.46875 25.066406 4.464844 25.066406 4.460938 C 25.0625 4.445312 25.054688 4.429688 25.046875 4.417969 C 25.042969 4.414062 25.042969 4.414062 25.039062 4.414062 C 25.039062 4.410156 25.039062 4.410156 25.039062 4.40625 C 25.035156 4.40625 25.03125 4.40625 25.03125 4.402344 C 25.019531 4.390625 25.003906 4.382812 24.988281 4.378906 C 24.984375 4.378906 24.984375 4.375 24.980469 4.375 C 24.960938 4.371094 24.941406 4.371094 24.925781 4.375 C 24.921875 4.375 24.921875 4.375 24.917969 4.375 L 8.457031 8.605469 C 8.410156 8.617188 8.375 8.65625 8.367188 8.707031 C 8.359375 8.757812 8.382812 8.804688 8.425781 8.832031 L 12.695312 11.425781 L 14.976562 17.460938 C 14.976562 17.464844 14.980469 17.464844 14.980469 17.464844 C 14.988281 17.484375 15 17.5 15.015625 17.511719 C 15.015625 17.511719 15.015625 17.515625 15.015625 17.515625 C 15.03125 17.527344 15.054688 17.535156 15.074219 17.539062 C 15.078125 17.539062 15.085938 17.539062 15.089844 17.539062 C 15.105469 17.539062 15.121094 17.535156 15.132812 17.53125 C 15.136719 17.53125 15.136719 17.527344 15.140625 17.527344 C 15.160156 17.519531 15.175781 17.507812 15.1875 17.492188 L 17.5625 14.378906 L 21.597656 16.832031 C 21.613281 16.84375 21.628906 16.847656 21.648438 16.851562 C 21.667969 16.851562 21.6875 16.851562 21.707031 16.84375 C 21.746094 16.828125 21.769531 16.796875 21.78125 16.757812 L 25.066406 4.527344 C 25.070312 4.523438 25.066406 4.523438 25.066406 4.519531 C 25.070312 4.503906 25.070312 4.488281 25.066406 4.46875 Z M 24.066406 4.851562 L 12.800781 11.195312 L 8.804688 8.773438 Z M 24.332031 4.984375 L 16.46875 13.542969 C 16.464844 13.546875 16.464844 13.550781 16.460938 13.554688 C 16.460938 13.558594 16.457031 13.558594 16.453125 13.5625 C 16.453125 13.566406 16.453125 13.570312 16.449219 13.570312 C 16.449219 13.574219 16.445312 13.578125 16.445312 13.582031 L 15.09375 17.070312 L 12.949219 11.398438 Z M 15.519531 16.652344 L 16.621094 13.808594 L 17.347656 14.253906 Z M 21.585938 16.535156 L 16.753906 13.597656 L 24.699219 4.949219 Z M 21.585938 16.535156 " fill-opacity="1" fill-rule="nonzero"/></g></g></g><g clip-path="url(#b2d72c990c)"><g clip-path="url(#bec0744aea)"><g clip-path="url(#475541c65e)"><path fill="#ffffff" d="M 14.351562 18.828125 C 14.285156 18.8125 14.21875 18.859375 14.203125 18.925781 C 14.199219 18.949219 13.691406 21.273438 11.277344 22.839844 C 10.023438 23.65625 8.898438 23.898438 7.929688 23.824219 C 8.375 23.148438 8.652344 22.335938 8.695312 21.5 C 8.738281 20.699219 8.550781 20.023438 8.179688 19.636719 C 7.652344 19.089844 6.878906 18.757812 6.164062 18.773438 C 5.671875 18.78125 5.265625 18.945312 4.988281 19.253906 C 4.617188 19.664062 4.257812 20.511719 4.351562 21.40625 C 4.425781 22.113281 4.757812 22.695312 5.320312 23.097656 C 5.890625 23.503906 6.617188 23.878906 7.476562 24.023438 C 7.324219 24.210938 7.15625 24.378906 6.976562 24.53125 C 6.601562 24.847656 6.183594 25.144531 5.742188 25.460938 C 4.269531 26.515625 2.605469 27.707031 2.347656 29.789062 C 2.339844 29.855469 2.386719 29.917969 2.457031 29.925781 C 2.523438 29.933594 2.585938 29.886719 2.59375 29.816406 C 2.835938 27.847656 4.382812 26.738281 5.882812 25.667969 C 6.328125 25.347656 6.75 25.046875 7.132812 24.722656 C 7.363281 24.53125 7.574219 24.308594 7.757812 24.0625 C 8.804688 24.175781 10.035156 23.945312 11.40625 23.050781 C 13.914062 21.421875 14.425781 19.074219 14.445312 18.976562 C 14.457031 18.910156 14.417969 18.84375 14.351562 18.828125 Z M 7.648438 23.796875 C 6.773438 23.675781 6.035156 23.304688 5.460938 22.894531 C 4.828125 22.441406 4.640625 21.820312 4.59375 21.382812 C 4.511719 20.5625 4.832031 19.789062 5.167969 19.421875 C 5.398438 19.167969 5.742188 19.027344 6.164062 19.019531 C 6.269531 19.019531 6.375 19.027344 6.480469 19.039062 C 7.035156 19.109375 7.601562 19.390625 8.003906 19.8125 C 8.324219 20.140625 8.488281 20.769531 8.449219 21.488281 C 8.40625 22.324219 8.117188 23.136719 7.648438 23.796875 Z M 7.648438 23.796875 " fill-opacity="1" fill-rule="nonzero"/></g></g></g><g fill="#ffffff" fill-opacity="1"><g transform="translate(21.620555, 23.836103)"><g><path d="M 1.40625 -5.375 L 1.40625 -3.375 L 3.9375 -3.390625 L 3.9375 -2.78125 L 1.40625 -2.78125 L 1.40625 0 L 0.640625 0 L 0.640625 -6.046875 L 4.265625 -6.046875 L 4.265625 -5.375 Z M 1.40625 -5.375 "/></g></g></g><g fill="#ffffff" fill-opacity="1"><g transform="translate(26.080095, 23.836103)"><g><path d="M 1.40625 -5.375 L 1.40625 -3.390625 L 4.015625 -3.390625 L 4.015625 -2.78125 L 1.40625 -2.78125 L 1.40625 -0.671875 L 4.375 -0.671875 L 4.375 0 L 0.640625 0 L 0.640625 -6.046875 L 4.375 -6.046875 L 4.375 -5.375 Z M 1.40625 -5.375 "/></g></g></g><g fill="#ffffff" fill-opacity="1"><g transform="translate(30.997687, 23.836103)"><g><path d="M 2.46875 -2.40625 L 1.390625 -2.40625 L 1.390625 0 L 0.640625 0 L 0.640625 -6.046875 L 2.703125 -6.046875 C 3.191406 -6.046875 3.59375 -5.957031 3.90625 -5.78125 C 4.21875 -5.601562 4.441406 -5.375 4.578125 -5.09375 C 4.722656 -4.820312 4.796875 -4.53125 4.796875 -4.21875 C 4.796875 -3.800781 4.671875 -3.425781 4.421875 -3.09375 C 4.171875 -2.757812 3.78125 -2.546875 3.25 -2.453125 L 4.84375 0 L 4.03125 0 Z M 1.390625 -3.046875 L 2.609375 -3.046875 C 3.015625 -3.046875 3.359375 -3.132812 3.640625 -3.3125 C 3.921875 -3.488281 4.0625 -3.789062 4.0625 -4.21875 C 4.0625 -4.644531 3.921875 -4.941406 3.640625 -5.109375 C 3.359375 -5.285156 3.015625 -5.375 2.609375 -5.375 L 1.390625 -5.375 Z M 1.390625 -3.046875 "/></g></g></g><g fill="#ffffff" fill-opacity="1"><g transform="translate(36.226411, 23.836103)"><g><path d="M 0.640625 -6.046875 L 1.484375 -6.046875 L 4.71875 -1.1875 L 4.765625 -1.1875 L 4.765625 -6.046875 L 5.5 -6.046875 L 5.5 0 L 4.65625 0 L 1.421875 -4.78125 L 1.375 -4.78125 L 1.375 0 L 0.640625 0 Z M 0.640625 -6.046875 "/></g></g></g><g fill="#ffffff" fill-opacity="1"><g transform="translate(42.371238, 23.836103)"><g><path d="M 4.171875 -1.765625 L 1.703125 -1.765625 L 1.078125 0 L 0.3125 0 L 2.578125 -6.046875 L 3.296875 -6.046875 L 5.578125 0 L 4.828125 0 Z M 3.953125 -2.359375 L 2.953125 -5.09375 L 2.90625 -5.09375 L 1.921875 -2.359375 Z M 3.953125 -2.359375 "/></g></g></g><g fill="#ffffff" fill-opacity="1"><g transform="translate(48.248153, 23.836103)"><g><path d="M 0.640625 -6.046875 L 1.484375 -6.046875 L 4.71875 -1.1875 L 4.765625 -1.1875 L 4.765625 -6.046875 L 5.5 -6.046875 L 5.5 0 L 4.65625 0 L 1.421875 -4.78125 L 1.375 -4.78125 L 1.375 0 L 0.640625 0 Z M 0.640625 -6.046875 "/></g></g></g><g fill="#ffffff" fill-opacity="1"><g transform="translate(54.39298, 23.836103)"><g><path d="M 0.640625 -6.046875 L 2.859375 -6.046875 C 3.398438 -6.046875 3.875 -5.921875 4.28125 -5.671875 C 4.6875 -5.429688 5 -5.082031 5.21875 -4.625 C 5.445312 -4.175781 5.5625 -3.644531 5.5625 -3.03125 C 5.5625 -2.414062 5.445312 -1.878906 5.21875 -1.421875 C 5 -0.960938 4.679688 -0.609375 4.265625 -0.359375 C 3.859375 -0.117188 3.382812 0 2.84375 0 L 0.640625 0 Z M 2.75 -0.6875 C 3.351562 -0.6875 3.835938 -0.882812 4.203125 -1.28125 C 4.578125 -1.6875 4.765625 -2.269531 4.765625 -3.03125 C 4.765625 -3.789062 4.582031 -4.367188 4.21875 -4.765625 C 3.851562 -5.171875 3.363281 -5.375 2.75 -5.375 L 1.375 -5.375 L 1.375 -0.6875 Z M 2.75 -0.6875 "/></g></g></g><g fill="#ffffff" fill-opacity="1"><g transform="translate(60.330392, 23.836103)"><g><path d="M 3.1875 0.0625 C 2.601562 0.0625 2.101562 -0.0664062 1.6875 -0.328125 C 1.28125 -0.597656 0.96875 -0.96875 0.75 -1.4375 C 0.539062 -1.914062 0.4375 -2.453125 0.4375 -3.046875 C 0.4375 -3.648438 0.546875 -4.1875 0.765625 -4.65625 C 0.984375 -5.132812 1.296875 -5.503906 1.703125 -5.765625 C 2.117188 -6.035156 2.613281 -6.171875 3.1875 -6.171875 C 3.75 -6.171875 4.234375 -6.035156 4.640625 -5.765625 C 5.046875 -5.503906 5.351562 -5.132812 5.5625 -4.65625 C 5.78125 -4.1875 5.890625 -3.648438 5.890625 -3.046875 C 5.890625 -2.441406 5.78125 -1.90625 5.5625 -1.4375 C 5.351562 -0.96875 5.046875 -0.597656 4.640625 -0.328125 C 4.234375 -0.0664062 3.75 0.0625 3.1875 0.0625 Z M 3.171875 -0.625 C 3.566406 -0.625 3.910156 -0.726562 4.203125 -0.9375 C 4.503906 -1.144531 4.726562 -1.429688 4.875 -1.796875 C 5.03125 -2.160156 5.109375 -2.582031 5.109375 -3.0625 C 5.109375 -3.53125 5.03125 -3.945312 4.875 -4.3125 C 4.726562 -4.6875 4.503906 -4.976562 4.203125 -5.1875 C 3.910156 -5.394531 3.566406 -5.5 3.171875 -5.5 C 2.773438 -5.5 2.425781 -5.390625 2.125 -5.171875 C 1.832031 -4.960938 1.609375 -4.675781 1.453125 -4.3125 C 1.304688 -3.945312 1.234375 -3.53125 1.234375 -3.0625 C 1.234375 -2.582031 1.304688 -2.160156 1.453125 -1.796875 C 1.609375 -1.429688 1.832031 -1.144531 2.125 -0.9375 C 2.425781 -0.726562 2.773438 -0.625 3.171875 -0.625 Z M 3.171875 -0.625 "/></g></g></g><g fill="#ffffff" fill-opacity="1"><g transform="translate(66.682645, 23.836103)"><g/></g></g><g fill="#ffffff" fill-opacity="1"><g transform="translate(68.670428, 23.836103)"><g><path d="M 1.40625 -5.375 L 1.40625 -3.390625 L 4.015625 -3.390625 L 4.015625 -2.78125 L 1.40625 -2.78125 L 1.40625 -0.671875 L 4.375 -0.671875 L 4.375 0 L 0.640625 0 L 0.640625 -6.046875 L 4.375 -6.046875 L 4.375 -5.375 Z M 1.40625 -5.375 "/></g></g></g><g fill="#ffffff" fill-opacity="1"><g transform="translate(73.588019, 23.836103)"><g><path d="M 2.46875 -2.40625 L 1.390625 -2.40625 L 1.390625 0 L 0.640625 0 L 0.640625 -6.046875 L 2.703125 -6.046875 C 3.191406 -6.046875 3.59375 -5.957031 3.90625 -5.78125 C 4.21875 -5.601562 4.441406 -5.375 4.578125 -5.09375 C 4.722656 -4.820312 4.796875 -4.53125 4.796875 -4.21875 C 4.796875 -3.800781 4.671875 -3.425781 4.421875 -3.09375 C 4.171875 -2.757812 3.78125 -2.546875 3.25 -2.453125 L 4.84375 0 L 4.03125 0 Z M 1.390625 -3.046875 L 2.609375 -3.046875 C 3.015625 -3.046875 3.359375 -3.132812 3.640625 -3.3125 C 3.921875 -3.488281 4.0625 -3.789062 4.0625 -4.21875 C 4.0625 -4.644531 3.921875 -4.941406 3.640625 -5.109375 C 3.359375 -5.285156 3.015625 -5.375 2.609375 -5.375 L 1.390625 -5.375 Z M 1.390625 -3.046875 "/></g></g></g><g fill="#ffffff" fill-opacity="1"><g transform="translate(78.816743, 23.836103)"><g><path d="M 4.171875 -1.765625 L 1.703125 -1.765625 L 1.078125 0 L 0.3125 0 L 2.578125 -6.046875 L 3.296875 -6.046875 L 5.578125 0 L 4.828125 0 Z M 3.953125 -2.359375 L 2.953125 -5.09375 L 2.90625 -5.09375 L 1.921875 -2.359375 Z M 3.953125 -2.359375 "/></g></g></g><g fill="#ffffff" fill-opacity="1"><g transform="translate(84.693659, 23.836103)"><g><path d="M 0.453125 -0.6875 L 3.8125 -5.34375 L 3.8125 -5.359375 L 0.453125 -5.359375 L 0.453125 -6.046875 L 4.71875 -6.046875 L 4.71875 -5.359375 L 1.359375 -0.703125 L 1.359375 -0.6875 L 4.71875 -0.6875 L 4.71875 0 L 0.453125 0 Z M 0.453125 -0.6875 "/></g></g></g><g fill="#ffffff" fill-opacity="1"><g transform="translate(89.98288, 23.836103)"><g><path d="M 3.1875 0.0625 C 2.601562 0.0625 2.101562 -0.0664062 1.6875 -0.328125 C 1.28125 -0.597656 0.96875 -0.96875 0.75 -1.4375 C 0.539062 -1.914062 0.4375 -2.453125 0.4375 -3.046875 C 0.4375 -3.648438 0.546875 -4.1875 0.765625 -4.65625 C 0.984375 -5.132812 1.296875 -5.503906 1.703125 -5.765625 C 2.117188 -6.035156 2.613281 -6.171875 3.1875 -6.171875 C 3.75 -6.171875 4.234375 -6.035156 4.640625 -5.765625 C 5.046875 -5.503906 5.351562 -5.132812 5.5625 -4.65625 C 5.78125 -4.1875 5.890625 -3.648438 5.890625 -3.046875 C 5.890625 -2.441406 5.78125 -1.90625 5.5625 -1.4375 C 5.351562 -0.96875 5.046875 -0.597656 4.640625 -0.328125 C 4.234375 -0.0664062 3.75 0.0625 3.1875 0.0625 Z M 3.171875 -0.625 C 3.566406 -0.625 3.910156 -0.726562 4.203125 -0.9375 C 4.503906 -1.144531 4.726562 -1.429688 4.875 -1.796875 C 5.03125 -2.160156 5.109375 -2.582031 5.109375 -3.0625 C 5.109375 -3.53125 5.03125 -3.945312 4.875 -4.3125 C 4.726562 -4.6875 4.503906 -4.976562 4.203125 -5.1875 C 3.910156 -5.394531 3.566406 -5.5 3.171875 -5.5 C 2.773438 -5.5 2.425781 -5.390625 2.125 -5.171875 C 1.832031 -4.960938 1.609375 -4.675781 1.453125 -4.3125 C 1.304688 -3.945312 1.234375 -3.53125 1.234375 -3.0625 C 1.234375 -2.582031 1.304688 -2.160156 1.453125 -1.796875 C 1.609375 -1.429688 1.832031 -1.144531 2.125 -0.9375 C 2.425781 -0.726562 2.773438 -0.625 3.171875 -0.625 Z M 3.171875 -0.625 "/></g></g></g><g fill="#ffffff" fill-opacity="1"><g transform="translate(39.311336, 33.380007)"><g><path d="M 1.75 0 L 0.484375 0 L 0.484375 -4.0625 L 1.796875 -4.0625 C 2.191406 -4.0625 2.53125 -3.976562 2.8125 -3.8125 C 3.09375 -3.65625 3.304688 -3.425781 3.453125 -3.125 C 3.597656 -2.820312 3.671875 -2.457031 3.671875 -2.03125 C 3.671875 -1.613281 3.59375 -1.25 3.4375 -0.9375 C 3.289062 -0.632812 3.070312 -0.398438 2.78125 -0.234375 C 2.5 -0.078125 2.15625 0 1.75 0 Z M 0.984375 -0.4375 L 1.71875 -0.4375 C 2.21875 -0.4375 2.585938 -0.578125 2.828125 -0.859375 C 3.078125 -1.148438 3.203125 -1.539062 3.203125 -2.03125 C 3.203125 -2.519531 3.082031 -2.90625 2.84375 -3.1875 C 2.601562 -3.476562 2.242188 -3.625 1.765625 -3.625 L 0.984375 -3.625 Z M 0.984375 -0.4375 "/></g></g></g><g fill="#ffffff" fill-opacity="1"><g transform="translate(43.323261, 33.380007)"><g><path d="M 0.484375 0 L 0.484375 -4.0625 L 2.9375 -4.0625 L 2.9375 -3.625 L 0.984375 -3.625 L 0.984375 -2.25 L 2.8125 -2.25 L 2.8125 -1.8125 L 0.984375 -1.8125 L 0.984375 -0.4375 L 2.96875 -0.4375 L 2.96875 0 Z M 0.484375 0 "/></g></g></g><g fill="#ffffff" fill-opacity="1"><g transform="translate(46.661241, 33.380007)"><g><path d="M 0.65625 -4.0625 L 1.859375 -0.640625 L 1.90625 -0.640625 L 3.109375 -4.0625 L 3.625 -4.0625 L 2.140625 0 L 1.625 0 L 0.140625 -4.0625 Z M 0.65625 -4.0625 "/></g></g></g><g fill="#ffffff" fill-opacity="1"><g transform="translate(50.435303, 33.380007)"><g><path d="M 0.484375 0 L 0.484375 -4.0625 L 2.9375 -4.0625 L 2.9375 -3.625 L 0.984375 -3.625 L 0.984375 -2.25 L 2.8125 -2.25 L 2.8125 -1.8125 L 0.984375 -1.8125 L 0.984375 -0.4375 L 2.96875 -0.4375 L 2.96875 0 Z M 0.484375 0 "/></g></g></g><g fill="#ffffff" fill-opacity="1"><g transform="translate(53.773284, 33.380007)"><g><path d="M 0.484375 0 L 0.484375 -4.0625 L 0.984375 -4.0625 L 0.984375 -0.4375 L 2.875 -0.4375 L 2.875 0 Z M 0.484375 0 "/></g></g></g><g fill="#ffffff" fill-opacity="1"><g transform="translate(56.91305, 33.380007)"><g><path d="M 3.90625 -2.03125 C 3.90625 -1.601562 3.828125 -1.234375 3.671875 -0.921875 C 3.523438 -0.609375 3.316406 -0.363281 3.046875 -0.1875 C 2.773438 -0.0195312 2.46875 0.0625 2.125 0.0625 C 1.78125 0.0625 1.472656 -0.0195312 1.203125 -0.1875 C 0.929688 -0.363281 0.71875 -0.609375 0.5625 -0.921875 C 0.40625 -1.234375 0.328125 -1.601562 0.328125 -2.03125 C 0.328125 -2.457031 0.40625 -2.828125 0.5625 -3.140625 C 0.71875 -3.453125 0.929688 -3.691406 1.203125 -3.859375 C 1.472656 -4.023438 1.78125 -4.109375 2.125 -4.109375 C 2.46875 -4.109375 2.773438 -4.023438 3.046875 -3.859375 C 3.316406 -3.691406 3.523438 -3.453125 3.671875 -3.140625 C 3.828125 -2.828125 3.90625 -2.457031 3.90625 -2.03125 Z M 3.4375 -2.03125 C 3.4375 -2.382812 3.378906 -2.679688 3.265625 -2.921875 C 3.148438 -3.160156 2.988281 -3.34375 2.78125 -3.46875 C 2.582031 -3.59375 2.363281 -3.65625 2.125 -3.65625 C 1.875 -3.65625 1.648438 -3.59375 1.453125 -3.46875 C 1.253906 -3.34375 1.097656 -3.160156 0.984375 -2.921875 C 0.867188 -2.679688 0.8125 -2.382812 0.8125 -2.03125 C 0.8125 -1.675781 0.867188 -1.378906 0.984375 -1.140625 C 1.097656 -0.898438 1.253906 -0.71875 1.453125 -0.59375 C 1.648438 -0.46875 1.875 -0.40625 2.125 -0.40625 C 2.363281 -0.40625 2.582031 -0.46875 2.78125 -0.59375 C 2.988281 -0.71875 3.148438 -0.898438 3.265625 -1.140625 C 3.378906 -1.378906 3.4375 -1.675781 3.4375 -2.03125 Z M 3.4375 -2.03125 "/></g></g></g><g fill="#ffffff" fill-opacity="1"><g transform="translate(61.162837, 33.380007)"><g><path d="M 0.484375 0 L 0.484375 -4.0625 L 1.859375 -4.0625 C 2.179688 -4.0625 2.441406 -4.003906 2.640625 -3.890625 C 2.847656 -3.773438 3 -3.617188 3.09375 -3.421875 C 3.1875 -3.222656 3.234375 -3.003906 3.234375 -2.765625 C 3.234375 -2.535156 3.1875 -2.320312 3.09375 -2.125 C 3 -1.925781 2.847656 -1.769531 2.640625 -1.65625 C 2.441406 -1.539062 2.1875 -1.484375 1.875 -1.484375 L 0.984375 -1.484375 L 0.984375 0 Z M 0.984375 -1.921875 L 1.859375 -1.921875 C 2.179688 -1.921875 2.410156 -2 2.546875 -2.15625 C 2.679688 -2.320312 2.75 -2.523438 2.75 -2.765625 C 2.75 -3.015625 2.679688 -3.21875 2.546875 -3.375 C 2.410156 -3.539062 2.175781 -3.625 1.84375 -3.625 L 0.984375 -3.625 Z M 0.984375 -1.921875 "/></g></g></g><g fill="#ffffff" fill-opacity="1"><g transform="translate(64.706966, 33.380007)"><g><path d="M 0.484375 0 L 0.484375 -4.0625 L 2.9375 -4.0625 L 2.9375 -3.625 L 0.984375 -3.625 L 0.984375 -2.25 L 2.8125 -2.25 L 2.8125 -1.8125 L 0.984375 -1.8125 L 0.984375 -0.4375 L 2.96875 -0.4375 L 2.96875 0 Z M 0.484375 0 "/></g></g></g><g fill="#ffffff" fill-opacity="1"><g transform="translate(68.044946, 33.380007)"><g><path d="M 0.484375 0 L 0.484375 -4.0625 L 1.859375 -4.0625 C 2.179688 -4.0625 2.441406 -4.003906 2.640625 -3.890625 C 2.847656 -3.785156 3 -3.640625 3.09375 -3.453125 C 3.1875 -3.265625 3.234375 -3.050781 3.234375 -2.8125 C 3.234375 -2.539062 3.171875 -2.304688 3.046875 -2.109375 C 2.929688 -1.910156 2.742188 -1.765625 2.484375 -1.671875 L 3.40625 0 L 2.828125 0 L 1.96875 -1.59375 C 1.9375 -1.582031 1.90625 -1.578125 1.875 -1.578125 L 0.984375 -1.578125 L 0.984375 0 Z M 0.984375 -2.03125 L 1.859375 -2.03125 C 2.179688 -2.03125 2.410156 -2.097656 2.546875 -2.234375 C 2.679688 -2.378906 2.75 -2.570312 2.75 -2.8125 C 2.75 -3.050781 2.679688 -3.242188 2.546875 -3.390625 C 2.410156 -3.546875 2.175781 -3.625 1.84375 -3.625 L 0.984375 -3.625 Z M 0.984375 -2.03125 "/></g></g></g><g fill="#ffffff" fill-opacity="1"><g transform="translate(71.618304, 33.380007)"><g/></g></g></svg>