<svg xmlns="http://www.w3.org/2000/svg" xmlns:xlink="http://www.w3.org/1999/xlink" width="70" zoomAndPan="magnify" viewBox="0 0 52.5 30.000001" height="40" preserveAspectRatio="xMidYMid meet" version="1.0"><defs><g/><clipPath id="50e421f0ec"><path d="M 14 6 L 19 6 L 19 10 L 14 10 Z M 14 6 " clip-rule="nonzero"/></clipPath><clipPath id="21aec0570f"><path d="M 14.003906 5.914062 L 18.367188 6.472656 L 17.621094 12.289062 L 13.257812 11.726562 Z M 14.003906 5.914062 " clip-rule="nonzero"/></clipPath><clipPath id="8b38c83379"><path d="M 14.003906 5.914062 L 18.367188 6.472656 L 17.621094 12.289062 L 13.257812 11.726562 Z M 14.003906 5.914062 " clip-rule="nonzero"/></clipPath><clipPath id="7d31252afa"><path d="M 13 9 L 16 9 L 16 12 L 13 12 Z M 13 9 " clip-rule="nonzero"/></clipPath><clipPath id="94e0911963"><path d="M 14.003906 5.914062 L 18.367188 6.472656 L 17.621094 12.289062 L 13.257812 11.726562 Z M 14.003906 5.914062 " clip-rule="nonzero"/></clipPath><clipPath id="e657e17535"><path d="M 14.003906 5.914062 L 18.367188 6.472656 L 17.621094 12.289062 L 13.257812 11.726562 Z M 14.003906 5.914062 " clip-rule="nonzero"/></clipPath></defs><g clip-path="url(#50e421f0ec)"><g clip-path="url(#21aec0570f)"><g clip-path="url(#8b38c83379)"><path fill="#ffffff" d="M 18.363281 6.496094 C 18.363281 6.492188 18.363281 6.492188 18.363281 6.492188 C 18.359375 6.488281 18.359375 6.488281 18.355469 6.484375 C 18.355469 6.484375 18.355469 6.484375 18.355469 6.480469 C 18.355469 6.480469 18.351562 6.480469 18.351562 6.480469 C 18.351562 6.476562 18.347656 6.476562 18.34375 6.476562 C 18.34375 6.476562 18.34375 6.476562 18.339844 6.472656 C 18.335938 6.472656 18.332031 6.472656 18.328125 6.472656 L 14.601562 7.3125 C 14.589844 7.3125 14.582031 7.324219 14.578125 7.332031 C 14.578125 7.34375 14.582031 7.351562 14.59375 7.359375 L 15.570312 7.910156 L 16.101562 9.167969 C 16.105469 9.171875 16.105469 9.175781 16.109375 9.179688 C 16.117188 9.183594 16.121094 9.183594 16.125 9.183594 C 16.125 9.183594 16.128906 9.1875 16.128906 9.1875 C 16.132812 9.1875 16.136719 9.183594 16.136719 9.183594 C 16.140625 9.183594 16.140625 9.183594 16.140625 9.183594 C 16.144531 9.179688 16.148438 9.179688 16.148438 9.175781 L 16.683594 8.535156 L 17.605469 9.054688 C 17.609375 9.058594 17.613281 9.058594 17.617188 9.058594 C 17.621094 9.058594 17.625 9.058594 17.628906 9.058594 C 17.636719 9.054688 17.644531 9.046875 17.644531 9.039062 L 18.363281 6.507812 C 18.363281 6.507812 18.363281 6.503906 18.363281 6.503906 C 18.363281 6.5 18.363281 6.496094 18.363281 6.496094 Z M 18.136719 6.570312 L 15.59375 7.863281 L 14.679688 7.347656 Z M 18.195312 6.601562 L 16.429688 8.359375 C 16.429688 8.359375 16.429688 8.363281 16.429688 8.363281 C 16.425781 8.363281 16.425781 8.363281 16.425781 8.363281 C 16.425781 8.363281 16.425781 8.367188 16.425781 8.367188 L 16.128906 9.089844 L 15.625 7.902344 Z M 16.222656 9 L 16.464844 8.414062 L 16.632812 8.507812 Z M 17.601562 8.992188 L 16.496094 8.371094 L 18.28125 6.59375 Z M 17.601562 8.992188 " fill-opacity="1" fill-rule="nonzero"/></g></g></g><g clip-path="url(#7d31252afa)"><g clip-path="url(#94e0911963)"><g clip-path="url(#e657e17535)"><path fill="#ffffff" d="M 15.964844 9.453125 C 15.949219 9.449219 15.933594 9.457031 15.929688 9.472656 C 15.929688 9.476562 15.820312 9.957031 15.273438 10.277344 C 14.992188 10.445312 14.738281 10.492188 14.515625 10.472656 C 14.617188 10.335938 14.679688 10.164062 14.6875 9.992188 C 14.695312 9.828125 14.648438 9.683594 14.5625 9.605469 C 14.441406 9.488281 14.265625 9.417969 14.105469 9.417969 C 13.992188 9.417969 13.898438 9.453125 13.835938 9.515625 C 13.753906 9.601562 13.675781 9.777344 13.699219 9.960938 C 13.71875 10.109375 13.792969 10.230469 13.921875 10.316406 C 14.054688 10.402344 14.21875 10.480469 14.414062 10.515625 C 14.382812 10.550781 14.34375 10.585938 14.304688 10.617188 C 14.21875 10.683594 14.125 10.742188 14.023438 10.808594 C 13.695312 11.023438 13.316406 11.265625 13.265625 11.699219 C 13.265625 11.714844 13.273438 11.726562 13.289062 11.726562 C 13.304688 11.730469 13.320312 11.71875 13.320312 11.707031 C 13.371094 11.296875 13.71875 11.070312 14.058594 10.851562 C 14.15625 10.785156 14.253906 10.722656 14.339844 10.660156 C 14.390625 10.617188 14.4375 10.574219 14.480469 10.523438 C 14.71875 10.546875 14.996094 10.503906 15.304688 10.320312 C 15.871094 9.988281 15.980469 9.503906 15.984375 9.480469 C 15.988281 9.46875 15.980469 9.453125 15.964844 9.453125 Z M 14.453125 10.46875 C 14.253906 10.441406 14.085938 10.359375 13.953125 10.273438 C 13.808594 10.179688 13.765625 10.050781 13.753906 9.957031 C 13.734375 9.785156 13.804688 9.628906 13.878906 9.550781 C 13.929688 9.5 14.007812 9.472656 14.105469 9.472656 C 14.128906 9.472656 14.152344 9.472656 14.175781 9.476562 C 14.304688 9.492188 14.433594 9.550781 14.523438 9.640625 C 14.597656 9.710938 14.636719 9.839844 14.628906 9.988281 C 14.621094 10.164062 14.558594 10.332031 14.453125 10.46875 Z M 14.453125 10.46875 " fill-opacity="1" fill-rule="nonzero"/></g></g></g><g fill="#ffffff" fill-opacity="1"><g transform="translate(17.723476, 12.237534)"><g><path d="M 0.3125 -1.21875 L 0.3125 -0.765625 L 0.890625 -0.78125 L 0.890625 -0.640625 L 0.3125 -0.640625 L 0.3125 0 L 0.140625 0 L 0.140625 -1.375 L 0.96875 -1.375 L 0.96875 -1.21875 Z M 0.3125 -1.21875 "/></g></g></g><g fill="#ffffff" fill-opacity="1"><g transform="translate(18.741286, 12.237534)"><g><path d="M 0.3125 -1.21875 L 0.3125 -0.765625 L 0.921875 -0.765625 L 0.921875 -0.640625 L 0.3125 -0.640625 L 0.3125 -0.15625 L 1 -0.15625 L 1 0 L 0.140625 0 L 0.140625 -1.375 L 1 -1.375 L 1 -1.21875 Z M 0.3125 -1.21875 "/></g></g></g><g fill="#ffffff" fill-opacity="1"><g transform="translate(19.863637, 12.237534)"><g><path d="M 0.5625 -0.546875 L 0.3125 -0.546875 L 0.3125 0 L 0.140625 0 L 0.140625 -1.375 L 0.609375 -1.375 C 0.722656 -1.375 0.816406 -1.351562 0.890625 -1.3125 C 0.960938 -1.269531 1.015625 -1.21875 1.046875 -1.15625 C 1.078125 -1.09375 1.09375 -1.03125 1.09375 -0.96875 C 1.09375 -0.863281 1.0625 -0.773438 1 -0.703125 C 0.945312 -0.628906 0.859375 -0.582031 0.734375 -0.5625 L 1.109375 0 L 0.921875 0 Z M 0.3125 -0.6875 L 0.59375 -0.6875 C 0.6875 -0.6875 0.765625 -0.707031 0.828125 -0.75 C 0.890625 -0.789062 0.921875 -0.863281 0.921875 -0.96875 C 0.921875 -1.0625 0.890625 -1.125 0.828125 -1.15625 C 0.765625 -1.195312 0.6875 -1.21875 0.59375 -1.21875 L 0.3125 -1.21875 Z M 0.3125 -0.6875 "/></g></g></g><g fill="#ffffff" fill-opacity="1"><g transform="translate(21.056998, 12.237534)"><g><path d="M 0.140625 -1.375 L 0.34375 -1.375 L 1.078125 -0.265625 L 1.078125 -1.375 L 1.25 -1.375 L 1.25 0 L 1.0625 0 L 0.328125 -1.09375 L 0.3125 -1.09375 L 0.3125 0 L 0.140625 0 Z M 0.140625 -1.375 "/></g></g></g><g fill="#ffffff" fill-opacity="1"><g transform="translate(22.459445, 12.237534)"><g><path d="M 0.953125 -0.40625 L 0.390625 -0.40625 L 0.25 0 L 0.078125 0 L 0.59375 -1.375 L 0.75 -1.375 L 1.265625 0 L 1.09375 0 Z M 0.90625 -0.53125 L 0.671875 -1.15625 L 0.65625 -1.15625 L 0.4375 -0.53125 Z M 0.90625 -0.53125 "/></g></g></g><g fill="#ffffff" fill-opacity="1"><g transform="translate(23.800745, 12.237534)"><g><path d="M 0.140625 -1.375 L 0.34375 -1.375 L 1.078125 -0.265625 L 1.078125 -1.375 L 1.25 -1.375 L 1.25 0 L 1.0625 0 L 0.328125 -1.09375 L 0.3125 -1.09375 L 0.3125 0 L 0.140625 0 Z M 0.140625 -1.375 "/></g></g></g><g fill="#ffffff" fill-opacity="1"><g transform="translate(25.203192, 12.237534)"><g><path d="M 0.140625 -1.375 L 0.65625 -1.375 C 0.78125 -1.375 0.882812 -1.34375 0.96875 -1.28125 C 1.0625 -1.226562 1.132812 -1.148438 1.1875 -1.046875 C 1.238281 -0.953125 1.265625 -0.832031 1.265625 -0.6875 C 1.265625 -0.550781 1.238281 -0.429688 1.1875 -0.328125 C 1.132812 -0.222656 1.0625 -0.140625 0.96875 -0.078125 C 0.875 -0.0234375 0.769531 0 0.65625 0 L 0.140625 0 Z M 0.625 -0.15625 C 0.757812 -0.15625 0.867188 -0.203125 0.953125 -0.296875 C 1.046875 -0.390625 1.09375 -0.519531 1.09375 -0.6875 C 1.09375 -0.863281 1.050781 -0.992188 0.96875 -1.078125 C 0.882812 -1.171875 0.769531 -1.21875 0.625 -1.21875 L 0.3125 -1.21875 L 0.3125 -0.15625 Z M 0.625 -0.15625 "/></g></g></g><g fill="#ffffff" fill-opacity="1"><g transform="translate(26.558299, 12.237534)"><g><path d="M 0.71875 0.015625 C 0.59375 0.015625 0.484375 -0.015625 0.390625 -0.078125 C 0.296875 -0.140625 0.222656 -0.222656 0.171875 -0.328125 C 0.117188 -0.429688 0.09375 -0.550781 0.09375 -0.6875 C 0.09375 -0.832031 0.117188 -0.957031 0.171875 -1.0625 C 0.222656 -1.164062 0.296875 -1.25 0.390625 -1.3125 C 0.484375 -1.375 0.59375 -1.40625 0.71875 -1.40625 C 0.851562 -1.40625 0.96875 -1.375 1.0625 -1.3125 C 1.15625 -1.25 1.222656 -1.164062 1.265625 -1.0625 C 1.316406 -0.957031 1.34375 -0.832031 1.34375 -0.6875 C 1.34375 -0.550781 1.316406 -0.429688 1.265625 -0.328125 C 1.222656 -0.222656 1.15625 -0.140625 1.0625 -0.078125 C 0.96875 -0.015625 0.851562 0.015625 0.71875 0.015625 Z M 0.71875 -0.140625 C 0.8125 -0.140625 0.890625 -0.160156 0.953125 -0.203125 C 1.023438 -0.253906 1.078125 -0.320312 1.109375 -0.40625 C 1.148438 -0.488281 1.171875 -0.585938 1.171875 -0.703125 C 1.171875 -0.804688 1.148438 -0.898438 1.109375 -0.984375 C 1.078125 -1.066406 1.023438 -1.128906 0.953125 -1.171875 C 0.890625 -1.222656 0.8125 -1.25 0.71875 -1.25 C 0.632812 -1.25 0.554688 -1.222656 0.484375 -1.171875 C 0.421875 -1.128906 0.367188 -1.066406 0.328125 -0.984375 C 0.296875 -0.898438 0.28125 -0.804688 0.28125 -0.703125 C 0.28125 -0.585938 0.296875 -0.488281 0.328125 -0.40625 C 0.367188 -0.320312 0.421875 -0.253906 0.484375 -0.203125 C 0.554688 -0.160156 0.632812 -0.140625 0.71875 -0.140625 Z M 0.71875 -0.140625 "/></g></g></g><g fill="#ffffff" fill-opacity="1"><g transform="translate(28.008085, 12.237534)"><g/></g></g><g fill="#ffffff" fill-opacity="1"><g transform="translate(28.46176, 12.237534)"><g><path d="M 0.3125 -1.21875 L 0.3125 -0.765625 L 0.921875 -0.765625 L 0.921875 -0.640625 L 0.3125 -0.640625 L 0.3125 -0.15625 L 1 -0.15625 L 1 0 L 0.140625 0 L 0.140625 -1.375 L 1 -1.375 L 1 -1.21875 Z M 0.3125 -1.21875 "/></g></g></g><g fill="#ffffff" fill-opacity="1"><g transform="translate(29.584112, 12.237534)"><g><path d="M 0.5625 -0.546875 L 0.3125 -0.546875 L 0.3125 0 L 0.140625 0 L 0.140625 -1.375 L 0.609375 -1.375 C 0.722656 -1.375 0.816406 -1.351562 0.890625 -1.3125 C 0.960938 -1.269531 1.015625 -1.21875 1.046875 -1.15625 C 1.078125 -1.09375 1.09375 -1.03125 1.09375 -0.96875 C 1.09375 -0.863281 1.0625 -0.773438 1 -0.703125 C 0.945312 -0.628906 0.859375 -0.582031 0.734375 -0.5625 L 1.109375 0 L 0.921875 0 Z M 0.3125 -0.6875 L 0.59375 -0.6875 C 0.6875 -0.6875 0.765625 -0.707031 0.828125 -0.75 C 0.890625 -0.789062 0.921875 -0.863281 0.921875 -0.96875 C 0.921875 -1.0625 0.890625 -1.125 0.828125 -1.15625 C 0.765625 -1.195312 0.6875 -1.21875 0.59375 -1.21875 L 0.3125 -1.21875 Z M 0.3125 -0.6875 "/></g></g></g><g fill="#ffffff" fill-opacity="1"><g transform="translate(30.777473, 12.237534)"><g><path d="M 0.953125 -0.40625 L 0.390625 -0.40625 L 0.25 0 L 0.078125 0 L 0.59375 -1.375 L 0.75 -1.375 L 1.265625 0 L 1.09375 0 Z M 0.90625 -0.53125 L 0.671875 -1.15625 L 0.65625 -1.15625 L 0.4375 -0.53125 Z M 0.90625 -0.53125 "/></g></g></g><g fill="#ffffff" fill-opacity="1"><g transform="translate(32.118773, 12.237534)"><g><path d="M 0.109375 -0.15625 L 0.875 -1.21875 L 0.109375 -1.21875 L 0.109375 -1.375 L 1.078125 -1.375 L 1.078125 -1.21875 L 0.3125 -0.15625 L 1.078125 -0.15625 L 1.078125 0 L 0.109375 0 Z M 0.109375 -0.15625 "/></g></g></g><g fill="#ffffff" fill-opacity="1"><g transform="translate(33.325942, 12.237534)"><g><path d="M 0.71875 0.015625 C 0.59375 0.015625 0.484375 -0.015625 0.390625 -0.078125 C 0.296875 -0.140625 0.222656 -0.222656 0.171875 -0.328125 C 0.117188 -0.429688 0.09375 -0.550781 0.09375 -0.6875 C 0.09375 -0.832031 0.117188 -0.957031 0.171875 -1.0625 C 0.222656 -1.164062 0.296875 -1.25 0.390625 -1.3125 C 0.484375 -1.375 0.59375 -1.40625 0.71875 -1.40625 C 0.851562 -1.40625 0.96875 -1.375 1.0625 -1.3125 C 1.15625 -1.25 1.222656 -1.164062 1.265625 -1.0625 C 1.316406 -0.957031 1.34375 -0.832031 1.34375 -0.6875 C 1.34375 -0.550781 1.316406 -0.429688 1.265625 -0.328125 C 1.222656 -0.222656 1.15625 -0.140625 1.0625 -0.078125 C 0.96875 -0.015625 0.851562 0.015625 0.71875 0.015625 Z M 0.71875 -0.140625 C 0.8125 -0.140625 0.890625 -0.160156 0.953125 -0.203125 C 1.023438 -0.253906 1.078125 -0.320312 1.109375 -0.40625 C 1.148438 -0.488281 1.171875 -0.585938 1.171875 -0.703125 C 1.171875 -0.804688 1.148438 -0.898438 1.109375 -0.984375 C 1.078125 -1.066406 1.023438 -1.128906 0.953125 -1.171875 C 0.890625 -1.222656 0.8125 -1.25 0.71875 -1.25 C 0.632812 -1.25 0.554688 -1.222656 0.484375 -1.171875 C 0.421875 -1.128906 0.367188 -1.066406 0.328125 -0.984375 C 0.296875 -0.898438 0.28125 -0.804688 0.28125 -0.703125 C 0.28125 -0.585938 0.296875 -0.488281 0.328125 -0.40625 C 0.367188 -0.320312 0.421875 -0.253906 0.484375 -0.203125 C 0.554688 -0.160156 0.632812 -0.140625 0.71875 -0.140625 Z M 0.71875 -0.140625 "/></g></g></g><g fill="#ffffff" fill-opacity="1"><g transform="translate(21.975802, 13.623761)"><g><path d="M 0.375 0 L 0.109375 0 L 0.109375 -0.859375 L 0.390625 -0.859375 C 0.472656 -0.859375 0.539062 -0.84375 0.59375 -0.8125 C 0.65625 -0.78125 0.703125 -0.726562 0.734375 -0.65625 C 0.765625 -0.59375 0.78125 -0.519531 0.78125 -0.4375 C 0.78125 -0.34375 0.765625 -0.265625 0.734375 -0.203125 C 0.703125 -0.140625 0.65625 -0.0859375 0.59375 -0.046875 C 0.53125 -0.015625 0.457031 0 0.375 0 Z M 0.203125 -0.09375 L 0.359375 -0.09375 C 0.472656 -0.09375 0.554688 -0.125 0.609375 -0.1875 C 0.660156 -0.25 0.6875 -0.332031 0.6875 -0.4375 C 0.6875 -0.539062 0.660156 -0.617188 0.609375 -0.671875 C 0.554688 -0.734375 0.476562 -0.765625 0.375 -0.765625 L 0.203125 -0.765625 Z M 0.203125 -0.09375 "/></g></g></g><g fill="#ffffff" fill-opacity="1"><g transform="translate(22.826768, 13.623761)"><g><path d="M 0.109375 0 L 0.109375 -0.859375 L 0.625 -0.859375 L 0.625 -0.765625 L 0.203125 -0.765625 L 0.203125 -0.484375 L 0.59375 -0.484375 L 0.59375 -0.390625 L 0.203125 -0.390625 L 0.203125 -0.09375 L 0.625 -0.09375 L 0.625 0 Z M 0.109375 0 "/></g></g></g><g fill="#ffffff" fill-opacity="1"><g transform="translate(23.534785, 13.623761)"><g><path d="M 0.140625 -0.859375 L 0.390625 -0.140625 L 0.40625 -0.140625 L 0.65625 -0.859375 L 0.765625 -0.859375 L 0.453125 0 L 0.34375 0 L 0.03125 -0.859375 Z M 0.140625 -0.859375 "/></g></g></g><g fill="#ffffff" fill-opacity="1"><g transform="translate(24.335298, 13.623761)"><g><path d="M 0.109375 0 L 0.109375 -0.859375 L 0.625 -0.859375 L 0.625 -0.765625 L 0.203125 -0.765625 L 0.203125 -0.484375 L 0.59375 -0.484375 L 0.59375 -0.390625 L 0.203125 -0.390625 L 0.203125 -0.09375 L 0.625 -0.09375 L 0.625 0 Z M 0.109375 0 "/></g></g></g><g fill="#ffffff" fill-opacity="1"><g transform="translate(25.043315, 13.623761)"><g><path d="M 0.109375 0 L 0.109375 -0.859375 L 0.203125 -0.859375 L 0.203125 -0.09375 L 0.609375 -0.09375 L 0.609375 0 Z M 0.109375 0 "/></g></g></g><g fill="#ffffff" fill-opacity="1"><g transform="translate(25.709288, 13.623761)"><g><path d="M 0.828125 -0.4375 C 0.828125 -0.34375 0.8125 -0.257812 0.78125 -0.1875 C 0.75 -0.125 0.703125 -0.0703125 0.640625 -0.03125 C 0.585938 0 0.523438 0.015625 0.453125 0.015625 C 0.378906 0.015625 0.3125 0 0.25 -0.03125 C 0.195312 -0.0703125 0.15625 -0.125 0.125 -0.1875 C 0.09375 -0.257812 0.078125 -0.34375 0.078125 -0.4375 C 0.078125 -0.519531 0.09375 -0.59375 0.125 -0.65625 C 0.15625 -0.726562 0.195312 -0.78125 0.25 -0.8125 C 0.3125 -0.851562 0.378906 -0.875 0.453125 -0.875 C 0.523438 -0.875 0.585938 -0.851562 0.640625 -0.8125 C 0.703125 -0.78125 0.75 -0.726562 0.78125 -0.65625 C 0.8125 -0.59375 0.828125 -0.519531 0.828125 -0.4375 Z M 0.734375 -0.4375 C 0.734375 -0.507812 0.71875 -0.570312 0.6875 -0.625 C 0.664062 -0.675781 0.632812 -0.710938 0.59375 -0.734375 C 0.550781 -0.765625 0.503906 -0.78125 0.453125 -0.78125 C 0.398438 -0.78125 0.351562 -0.765625 0.3125 -0.734375 C 0.269531 -0.710938 0.234375 -0.675781 0.203125 -0.625 C 0.179688 -0.570312 0.171875 -0.507812 0.171875 -0.4375 C 0.171875 -0.351562 0.179688 -0.285156 0.203125 -0.234375 C 0.234375 -0.191406 0.269531 -0.15625 0.3125 -0.125 C 0.351562 -0.101562 0.398438 -0.09375 0.453125 -0.09375 C 0.503906 -0.09375 0.550781 -0.101562 0.59375 -0.125 C 0.632812 -0.15625 0.664062 -0.191406 0.6875 -0.234375 C 0.71875 -0.285156 0.734375 -0.351562 0.734375 -0.4375 Z M 0.734375 -0.4375 "/></g></g></g><g fill="#ffffff" fill-opacity="1"><g transform="translate(26.610707, 13.623761)"><g><path d="M 0.109375 0 L 0.109375 -0.859375 L 0.390625 -0.859375 C 0.460938 -0.859375 0.519531 -0.847656 0.5625 -0.828125 C 0.601562 -0.804688 0.632812 -0.773438 0.65625 -0.734375 C 0.675781 -0.691406 0.6875 -0.644531 0.6875 -0.59375 C 0.6875 -0.539062 0.675781 -0.492188 0.65625 -0.453125 C 0.632812 -0.410156 0.601562 -0.375 0.5625 -0.34375 C 0.519531 -0.320312 0.460938 -0.3125 0.390625 -0.3125 L 0.203125 -0.3125 L 0.203125 0 Z M 0.203125 -0.40625 L 0.390625 -0.40625 C 0.460938 -0.40625 0.515625 -0.421875 0.546875 -0.453125 C 0.578125 -0.492188 0.59375 -0.539062 0.59375 -0.59375 C 0.59375 -0.644531 0.578125 -0.6875 0.546875 -0.71875 C 0.515625 -0.75 0.460938 -0.765625 0.390625 -0.765625 L 0.203125 -0.765625 Z M 0.203125 -0.40625 "/></g></g></g><g fill="#ffffff" fill-opacity="1"><g transform="translate(27.36245, 13.623761)"><g><path d="M 0.109375 0 L 0.109375 -0.859375 L 0.625 -0.859375 L 0.625 -0.765625 L 0.203125 -0.765625 L 0.203125 -0.484375 L 0.59375 -0.484375 L 0.59375 -0.390625 L 0.203125 -0.390625 L 0.203125 -0.09375 L 0.625 -0.09375 L 0.625 0 Z M 0.109375 0 "/></g></g></g><g fill="#ffffff" fill-opacity="1"><g transform="translate(28.070467, 13.623761)"><g><path d="M 0.109375 0 L 0.109375 -0.859375 L 0.390625 -0.859375 C 0.460938 -0.859375 0.519531 -0.847656 0.5625 -0.828125 C 0.601562 -0.804688 0.632812 -0.773438 0.65625 -0.734375 C 0.675781 -0.691406 0.6875 -0.644531 0.6875 -0.59375 C 0.6875 -0.539062 0.671875 -0.492188 0.640625 -0.453125 C 0.617188 -0.410156 0.582031 -0.378906 0.53125 -0.359375 L 0.71875 0 L 0.609375 0 L 0.421875 -0.34375 C 0.410156 -0.34375 0.398438 -0.34375 0.390625 -0.34375 L 0.203125 -0.34375 L 0.203125 0 Z M 0.203125 -0.4375 L 0.390625 -0.4375 C 0.460938 -0.4375 0.515625 -0.445312 0.546875 -0.46875 C 0.578125 -0.5 0.59375 -0.539062 0.59375 -0.59375 C 0.59375 -0.644531 0.578125 -0.6875 0.546875 -0.71875 C 0.515625 -0.75 0.460938 -0.765625 0.390625 -0.765625 L 0.203125 -0.765625 Z M 0.203125 -0.4375 "/></g></g></g><g fill="#ffffff" fill-opacity="1"><g transform="translate(28.827544, 13.623761)"><g/></g></g></svg>