<svg xmlns="http://www.w3.org/2000/svg" xmlns:xlink="http://www.w3.org/1999/xlink" width="500" zoomAndPan="magnify" viewBox="0 0 375 374.999991" height="500" preserveAspectRatio="xMidYMid meet" version="1.0"><defs><clipPath id="6621bcdc19"><path d="M 19.324219 27.257812 L 96.574219 27.257812 L 96.574219 113.507812 L 19.324219 113.507812 Z M 19.324219 27.257812 " clip-rule="nonzero"/></clipPath><clipPath id="d194a2b2a7"><path d="M 255.011719 27.433594 L 341.261719 27.433594 L 341.261719 113.683594 L 255.011719 113.683594 Z M 255.011719 27.433594 " clip-rule="nonzero"/></clipPath><clipPath id="8e7d42b8ca"><path d="M 255.011719 27.433594 L 299 27.433594 L 299 113.683594 L 255.011719 113.683594 Z M 255.011719 27.433594 " clip-rule="nonzero"/></clipPath><clipPath id="df4675893c"><path d="M 131.425781 27.433594 L 207.175781 27.433594 L 207.175781 113.683594 L 131.425781 113.683594 Z M 131.425781 27.433594 " clip-rule="nonzero"/></clipPath><clipPath id="064c600b1c"><path d="M 19.324219 135.585938 L 84 135.585938 L 84 201 L 19.324219 201 Z M 19.324219 135.585938 " clip-rule="nonzero"/></clipPath><clipPath id="f159062964"><path d="M 137 134.660156 L 217.921875 134.660156 L 217.921875 224.660156 L 137 224.660156 Z M 137 134.660156 " clip-rule="nonzero"/></clipPath><clipPath id="0da7052cfb"><path d="M 137 134.660156 L 217 134.660156 L 217 202 L 137 202 Z M 137 134.660156 " clip-rule="nonzero"/></clipPath><clipPath id="ee3c1295f0"><path d="M 176 156 L 217.921875 156 L 217.921875 203 L 176 203 Z M 176 156 " clip-rule="nonzero"/></clipPath><clipPath id="05c9ae8bb8"><path d="M 244.3125 134.660156 L 341.0625 134.660156 L 341.0625 231.410156 L 244.3125 231.410156 Z M 244.3125 134.660156 " clip-rule="nonzero"/></clipPath><clipPath id="9b884759ae"><path d="M 19.324219 236.496094 L 111.574219 236.496094 L 111.574219 328.746094 L 19.324219 328.746094 Z M 19.324219 236.496094 " clip-rule="nonzero"/></clipPath><clipPath id="99f583a00f"><path d="M 166 261 L 204.542969 261 L 204.542969 341.496094 L 166 341.496094 Z M 166 261 " clip-rule="nonzero"/></clipPath><clipPath id="654a57b4d9"><path d="M 121.292969 236.496094 L 179 236.496094 L 179 320 L 121.292969 320 Z M 121.292969 236.496094 " clip-rule="nonzero"/></clipPath><clipPath id="8117c72a7a"><path d="M 182 236.496094 L 204.542969 236.496094 L 204.542969 260 L 182 260 Z M 182 236.496094 " clip-rule="nonzero"/></clipPath><clipPath id="8e3c96f17e"><path d="M 232.503906 240.519531 L 329.253906 240.519531 L 329.253906 337.269531 L 232.503906 337.269531 Z M 232.503906 240.519531 " clip-rule="nonzero"/></clipPath></defs><g clip-path="url(#6621bcdc19)"><path fill="#0277bd" d="M 96.558594 27.257812 L 19.339844 27.257812 L 26.152344 104.429688 L 57.949219 113.507812 L 89.746094 104.429688 Z M 96.558594 27.257812 " fill-opacity="1" fill-rule="nonzero"/></g><path fill="#039be5" d="M 57.949219 34.066406 L 57.949219 106.472656 L 83.386719 99.207031 L 89.066406 34.066406 Z M 57.949219 34.066406 " fill-opacity="1" fill-rule="nonzero"/><path fill="#ffffff" d="M 78.617188 45.414062 L 57.949219 45.414062 L 57.949219 54.496094 L 69.078125 54.496094 L 68.398438 63.574219 L 57.949219 63.574219 L 57.949219 72.652344 L 67.945312 72.652344 L 67.261719 82.867188 L 57.949219 86.042969 L 57.949219 95.578125 L 75.890625 89.675781 L 77.480469 63.574219 Z M 78.617188 45.414062 " fill-opacity="1" fill-rule="nonzero"/><path fill="#eeeeee" d="M 57.949219 45.414062 L 57.949219 54.496094 L 37.738281 54.496094 L 37.054688 45.414062 Z M 47.503906 63.574219 L 47.957031 72.652344 L 57.949219 72.652344 L 57.949219 63.574219 Z M 48.410156 77.191406 L 39.328125 77.191406 L 40.007812 89.675781 L 57.949219 95.578125 L 57.949219 86.042969 L 48.636719 82.867188 Z M 48.410156 77.191406 " fill-opacity="1" fill-rule="nonzero"/><g clip-path="url(#d194a2b2a7)"><path fill="#ffc44d" d="M 258.222656 27.234375 C 257.359375 27.234375 256.535156 27.605469 255.964844 28.25 C 255.394531 28.898438 255.128906 29.761719 255.234375 30.617188 L 263.257812 94.800781 C 263.382812 95.800781 264 96.671875 264.898438 97.121094 L 296.992188 113.167969 C 297.839844 113.589844 298.835938 113.589844 299.683594 113.167969 L 331.777344 97.121094 C 332.675781 96.671875 333.292969 95.800781 333.417969 94.800781 L 341.4375 30.617188 C 341.546875 29.761719 341.28125 28.898438 340.710938 28.25 C 340.136719 27.605469 339.316406 27.234375 338.453125 27.234375 Z M 258.222656 27.234375 " fill-opacity="1" fill-rule="nonzero"/></g><g clip-path="url(#8e7d42b8ca)"><path fill="#e5b045" d="M 298.335938 27.234375 L 298.335938 113.484375 C 297.875 113.484375 297.414062 113.378906 296.992188 113.167969 L 264.898438 97.121094 C 264 96.671875 263.382812 95.800781 263.257812 94.800781 L 255.234375 30.617188 C 255.128906 29.761719 255.394531 28.898438 255.964844 28.25 C 256.535156 27.605469 257.359375 27.234375 258.222656 27.234375 Z M 298.335938 27.234375 " fill-opacity="1" fill-rule="evenodd"/></g><path fill="#cfd8dc" d="M 292.320312 39.269531 C 293.980469 39.269531 295.328125 40.617188 295.328125 42.277344 L 295.328125 94.429688 C 295.328125 95.5 294.757812 96.492188 293.832031 97.03125 C 292.902344 97.570312 291.757812 97.574219 290.828125 97.042969 L 276.789062 89.019531 C 275.34375 88.195312 274.84375 86.355469 275.667969 84.914062 C 276.492188 83.46875 278.328125 82.96875 279.773438 83.792969 L 289.3125 89.246094 L 289.3125 42.277344 C 289.3125 40.617188 290.660156 39.269531 292.320312 39.269531 Z M 292.320312 39.269531 " fill-opacity="1" fill-rule="evenodd"/><path fill="#eceff1" d="M 301.347656 42.277344 C 301.347656 40.617188 302.695312 39.269531 304.355469 39.269531 L 324.414062 39.269531 C 326.074219 39.269531 327.421875 40.617188 327.421875 42.277344 C 327.421875 43.941406 326.074219 45.285156 324.414062 45.285156 L 307.363281 45.285156 L 307.363281 64.601562 L 321.753906 61.40625 C 322.691406 61.195312 323.671875 61.449219 324.394531 62.082031 C 325.117188 62.71875 325.492188 63.65625 325.40625 64.613281 L 323.398438 86.679688 C 323.304688 87.714844 322.679688 88.632812 321.746094 89.097656 L 305.703125 97.121094 C 304.214844 97.863281 302.40625 97.261719 301.664062 95.773438 C 300.921875 94.289062 301.523438 92.480469 303.011719 91.738281 L 317.558594 84.464844 L 319.039062 68.171875 L 305.007812 71.289062 C 304.117188 71.488281 303.183594 71.269531 302.472656 70.699219 C 301.761719 70.128906 301.347656 69.265625 301.347656 68.351562 Z M 301.347656 42.277344 " fill-opacity="1" fill-rule="evenodd"/><g clip-path="url(#df4675893c)"><path fill="#e44d26" d="M 138.378906 104.738281 L 131.496094 27.839844 L 207.109375 27.839844 L 200.222656 104.726562 L 169.257812 113.28125 Z M 138.378906 104.738281 " fill-opacity="1" fill-rule="nonzero"/></g><path fill="#f16529" d="M 169.300781 106.742188 L 194.324219 99.832031 L 200.210938 34.125 L 169.300781 34.125 Z M 169.300781 106.742188 " fill-opacity="1" fill-rule="nonzero"/><path fill="#ebebeb" d="M 169.300781 62.648438 L 156.773438 62.648438 L 155.910156 52.992188 L 169.300781 52.992188 L 169.300781 43.5625 L 145.566406 43.5625 L 145.792969 46.089844 L 148.117188 72.078125 L 169.300781 72.078125 Z M 169.300781 87.140625 L 169.261719 87.152344 L 158.71875 84.316406 L 158.042969 76.792969 L 148.542969 76.792969 L 149.867188 91.601562 L 169.261719 96.964844 L 169.300781 96.953125 Z M 169.300781 87.140625 " fill-opacity="1" fill-rule="nonzero"/><path fill="#ffffff" d="M 169.269531 62.648438 L 169.269531 72.078125 L 180.925781 72.078125 L 179.824219 84.3125 L 169.265625 87.148438 L 169.265625 96.960938 L 188.671875 91.601562 L 188.816406 90.007812 L 191.042969 65.175781 L 191.273438 62.644531 L 188.722656 62.644531 Z M 169.269531 43.5625 L 169.269531 52.992188 L 192.136719 52.992188 L 192.324219 50.871094 L 192.757812 46.089844 L 192.980469 43.558594 Z M 169.269531 43.5625 " fill-opacity="1" fill-rule="nonzero"/><path fill="#000000" d="M 85.519531 162.515625 L 85.523438 162.515625 L 85.523438 162.5 Z M 85.519531 162.515625 " fill-opacity="1" fill-rule="nonzero"/><path fill="#f2bb30" d="M 94.433594 200.039062 C 100.449219 200.039062 102.671875 195.839844 104.765625 189.550781 C 106.929688 183.070312 106.835938 176.839844 104.765625 168.542969 C 103.273438 162.566406 100.453125 158.054688 94.433594 158.054688 L 86.679688 158.054688 L 86.679688 167.230469 C 86.679688 174.347656 80.640625 180.347656 73.757812 180.347656 L 53.097656 180.347656 C 47.445312 180.347656 42.765625 185.179688 42.765625 190.851562 L 42.765625 210.546875 C 42.765625 216.152344 47.640625 219.441406 53.097656 221.050781 C 59.632812 222.964844 65.921875 223.3125 73.753906 221.050781 C 78.960938 219.539062 84.085938 216.5 84.085938 210.546875 L 84.085938 202.667969 L 63.441406 202.667969 L 63.441406 200.039062 Z M 75.050781 207.914062 C 77.195312 207.914062 78.941406 209.675781 78.941406 211.84375 C 78.941406 214.03125 77.199219 215.789062 75.050781 215.789062 C 72.921875 215.789062 71.164062 214.007812 71.164062 211.84375 C 71.183594 209.652344 72.929688 207.914062 75.050781 207.914062 Z M 75.050781 207.914062 " fill-opacity="1" fill-rule="nonzero"/><g clip-path="url(#064c600b1c)"><path fill="#35668f" d="M 32.121094 200.039062 L 39.222656 200.039062 L 39.222656 190.597656 C 39.222656 183.769531 45.121094 177.75 52.144531 177.75 L 72.800781 177.75 C 78.546875 177.75 83.132812 173.011719 83.132812 167.246094 L 83.132812 147.535156 C 83.132812 141.925781 78.414062 137.722656 72.800781 136.78125 C 65.875 135.636719 58.351562 135.703125 52.144531 136.804688 L 52.148438 136.800781 C 43.402344 138.34375 41.820312 141.574219 41.820312 147.550781 L 41.820312 155.425781 L 62.5 155.425781 L 62.5 158.058594 L 34.058594 158.058594 C 28.042969 158.058594 22.777344 161.675781 21.136719 168.542969 C 19.242188 176.421875 19.167969 181.332031 21.136719 189.554688 C 22.605469 195.667969 26.109375 200.039062 32.121094 200.039062 Z M 50.851562 150.164062 C 48.707031 150.164062 46.960938 148.402344 46.960938 146.234375 C 46.984375 144.046875 48.707031 142.289062 50.851562 142.289062 C 52.980469 142.289062 54.738281 144.066406 54.738281 146.234375 C 54.738281 148.40625 53 150.164062 50.851562 150.164062 Z M 50.851562 150.164062 " fill-opacity="1" fill-rule="nonzero"/></g><g clip-path="url(#f159062964)"><path fill="#00549d" d="M 175.09375 135.484375 C 176.535156 134.671875 178.308594 134.671875 179.746094 135.484375 C 186.863281 139.5 208.273438 151.585938 215.394531 155.601562 C 216.832031 156.414062 217.71875 157.914062 217.71875 159.539062 C 217.71875 167.570312 217.71875 191.746094 217.71875 199.777344 C 217.71875 201.402344 216.832031 202.90625 215.394531 203.71875 C 208.277344 207.734375 186.863281 219.820312 179.746094 223.835938 C 178.304688 224.648438 176.53125 224.648438 175.09375 223.835938 C 167.976562 219.820312 146.566406 207.734375 139.445312 203.71875 C 138.007812 202.90625 137.121094 201.40625 137.121094 199.78125 C 137.121094 191.75 137.121094 167.574219 137.121094 159.542969 C 137.121094 157.917969 138.007812 156.414062 139.449219 155.601562 C 146.5625 151.585938 167.980469 139.5 175.09375 135.484375 Z M 175.09375 135.484375 " fill-opacity="1" fill-rule="evenodd"/></g><g clip-path="url(#0da7052cfb)"><path fill="#0086d4" d="M 137.765625 201.847656 C 137.203125 201.089844 137.121094 200.367188 137.121094 199.398438 C 137.121094 191.414062 137.121094 167.378906 137.121094 159.390625 C 137.121094 157.773438 138.007812 156.28125 139.441406 155.476562 C 146.535156 151.484375 167.875 139.464844 174.964844 135.46875 C 176.402344 134.664062 178.347656 134.679688 179.78125 135.488281 C 186.871094 139.480469 208.140625 151.394531 215.230469 155.386719 C 215.804688 155.710938 216.242188 156.101562 216.632812 156.617188 Z M 137.765625 201.847656 " fill-opacity="1" fill-rule="evenodd"/></g><path fill="#ffffff" d="M 177.421875 149.800781 C 193.808594 149.800781 207.113281 163.179688 207.113281 179.660156 C 207.113281 196.140625 193.808594 209.519531 177.421875 209.519531 C 161.03125 209.519531 147.726562 196.140625 147.726562 179.660156 C 147.726562 163.179688 161.03125 149.800781 177.421875 149.800781 Z M 177.421875 164.730469 C 185.613281 164.730469 192.269531 171.417969 192.269531 179.660156 C 192.269531 187.898438 185.613281 194.589844 177.421875 194.589844 C 169.226562 194.589844 162.574219 187.898438 162.574219 179.660156 C 162.574219 171.417969 169.226562 164.730469 177.421875 164.730469 Z M 177.421875 164.730469 " fill-opacity="1" fill-rule="evenodd"/><g clip-path="url(#ee3c1295f0)"><path fill="#0075c0" d="M 216.628906 156.636719 C 217.722656 157.667969 217.699219 159.21875 217.699219 160.441406 C 217.699219 168.535156 217.632812 191.554688 217.71875 199.648438 C 217.726562 200.496094 217.449219 201.382812 217.035156 202.054688 L 176.558594 179.660156 Z M 216.628906 156.636719 " fill-opacity="1" fill-rule="evenodd"/></g><path fill="#ffffff" d="M 192.269531 173.261719 L 196.507812 173.261719 L 196.507812 186.058594 L 192.269531 186.058594 Z M 207.113281 173.261719 L 211.355469 173.261719 L 211.355469 186.058594 L 207.113281 186.058594 Z M 207.113281 173.261719 " fill-opacity="1" fill-rule="evenodd"/><path fill="#ffffff" d="M 188.027344 177.527344 L 200.75 177.527344 L 200.75 181.792969 L 188.027344 181.792969 Z M 202.871094 177.527344 L 215.597656 177.527344 L 215.597656 181.792969 L 202.871094 181.792969 Z M 202.871094 177.527344 " fill-opacity="1" fill-rule="evenodd"/><g clip-path="url(#05c9ae8bb8)"><path fill="#f03c2e" d="M 339.238281 178.726562 L 296.996094 136.488281 C 296.707031 136.195312 296.394531 135.9375 296.054688 135.710938 C 295.714844 135.484375 295.355469 135.292969 294.976562 135.136719 C 294.597656 134.980469 294.207031 134.859375 293.808594 134.78125 C 293.40625 134.699219 293 134.660156 292.59375 134.660156 C 292.183594 134.660156 291.777344 134.699219 291.375 134.78125 C 290.976562 134.859375 290.585938 134.980469 290.207031 135.136719 C 289.828125 135.292969 289.472656 135.484375 289.128906 135.710938 C 288.789062 135.9375 288.476562 136.195312 288.1875 136.488281 L 279.417969 145.253906 L 290.546875 156.378906 C 293.132812 155.472656 296.097656 156.09375 298.15625 158.15625 C 298.648438 158.648438 299.0625 159.195312 299.398438 159.804688 C 299.734375 160.414062 299.980469 161.054688 300.136719 161.730469 C 300.289062 162.410156 300.351562 163.09375 300.3125 163.789062 C 300.273438 164.480469 300.140625 165.15625 299.914062 165.8125 L 310.640625 176.539062 C 313.234375 175.644531 316.226562 176.21875 318.296875 178.296875 C 318.640625 178.640625 318.949219 179.015625 319.21875 179.421875 C 319.492188 179.824219 319.71875 180.253906 319.90625 180.703125 C 320.09375 181.152344 320.234375 181.617188 320.328125 182.09375 C 320.421875 182.574219 320.472656 183.054688 320.472656 183.542969 C 320.472656 184.027344 320.421875 184.511719 320.328125 184.988281 C 320.234375 185.464844 320.09375 185.929688 319.90625 186.378906 C 319.71875 186.832031 319.492188 187.257812 319.222656 187.664062 C 318.949219 188.066406 318.644531 188.441406 318.296875 188.785156 C 317.953125 189.132812 317.578125 189.4375 317.175781 189.710938 C 316.769531 189.980469 316.339844 190.207031 315.890625 190.394531 C 315.441406 190.582031 314.976562 190.722656 314.5 190.816406 C 314.023438 190.910156 313.539062 190.957031 313.050781 190.957031 C 312.566406 190.957031 312.082031 190.910156 311.605469 190.816406 C 311.128906 190.71875 310.664062 190.578125 310.214844 190.390625 C 309.765625 190.207031 309.335938 189.976562 308.933594 189.707031 C 308.527344 189.433594 308.152344 189.128906 307.808594 188.78125 C 305.632812 186.605469 305.09375 183.402344 306.195312 180.71875 L 296.191406 170.71875 L 296.191406 197.035156 C 296.921875 197.398438 297.578125 197.867188 298.15625 198.441406 C 298.503906 198.785156 298.808594 199.160156 299.078125 199.5625 C 299.351562 199.96875 299.578125 200.394531 299.765625 200.84375 C 299.953125 201.292969 300.09375 201.757812 300.1875 202.234375 C 300.28125 202.714844 300.328125 203.195312 300.328125 203.683594 C 300.328125 204.167969 300.28125 204.652344 300.1875 205.128906 C 300.09375 205.605469 299.953125 206.070312 299.765625 206.519531 C 299.578125 206.96875 299.351562 207.398438 299.078125 207.800781 C 298.808594 208.207031 298.503906 208.582031 298.15625 208.925781 C 297.8125 209.269531 297.4375 209.578125 297.035156 209.847656 C 296.628906 210.117188 296.203125 210.347656 295.753906 210.53125 C 295.304688 210.71875 294.839844 210.859375 294.363281 210.953125 C 293.882812 211.050781 293.402344 211.097656 292.914062 211.097656 C 292.429688 211.097656 291.945312 211.050781 291.46875 210.953125 C 290.992188 210.859375 290.527344 210.71875 290.078125 210.53125 C 289.628906 210.347656 289.199219 210.117188 288.796875 209.847656 C 288.390625 209.578125 288.015625 209.269531 287.671875 208.925781 C 287.328125 208.582031 287.019531 208.207031 286.75 207.800781 C 286.480469 207.398438 286.25 206.96875 286.0625 206.519531 C 285.878906 206.070312 285.734375 205.605469 285.640625 205.128906 C 285.546875 204.652344 285.5 204.167969 285.5 203.683594 C 285.5 203.195312 285.546875 202.714844 285.640625 202.234375 C 285.734375 201.757812 285.878906 201.292969 286.0625 200.84375 C 286.25 200.394531 286.480469 199.96875 286.75 199.5625 C 287.019531 199.15625 287.328125 198.785156 287.671875 198.441406 C 288.390625 197.726562 289.183594 197.183594 290.101562 196.820312 L 290.101562 170.257812 C 289.21875 169.894531 288.390625 169.359375 287.671875 168.640625 C 287.152344 168.121094 286.71875 167.535156 286.371094 166.886719 C 286.027344 166.238281 285.78125 165.550781 285.640625 164.832031 C 285.496094 164.109375 285.464844 163.382812 285.539062 162.648438 C 285.613281 161.917969 285.792969 161.214844 286.078125 160.535156 L 275.101562 149.566406 L 246.136719 178.5 C 245.847656 178.789062 245.589844 179.105469 245.359375 179.445312 C 245.132812 179.785156 244.941406 180.144531 244.785156 180.523438 C 244.628906 180.898438 244.507812 181.289062 244.429688 181.691406 C 244.351562 182.09375 244.308594 182.496094 244.308594 182.90625 C 244.308594 183.316406 244.351562 183.722656 244.429688 184.121094 C 244.507812 184.523438 244.628906 184.914062 244.785156 185.292969 C 244.941406 185.667969 245.132812 186.027344 245.359375 186.371094 C 245.589844 186.710938 245.847656 187.023438 246.136719 187.3125 L 288.378906 229.550781 C 288.667969 229.839844 288.984375 230.097656 289.324219 230.324219 C 289.664062 230.554688 290.023438 230.746094 290.402344 230.902344 C 290.777344 231.058594 291.167969 231.175781 291.570312 231.257812 C 291.972656 231.335938 292.375 231.375 292.785156 231.375 C 293.195312 231.375 293.601562 231.335938 294 231.257812 C 294.402344 231.175781 294.792969 231.058594 295.167969 230.902344 C 295.546875 230.746094 295.90625 230.554688 296.246094 230.324219 C 296.585938 230.097656 296.902344 229.839844 297.191406 229.550781 L 339.238281 187.570312 C 339.527344 187.28125 339.785156 186.964844 340.011719 186.625 C 340.242188 186.285156 340.433594 185.925781 340.589844 185.546875 C 340.746094 185.171875 340.863281 184.78125 340.945312 184.378906 C 341.023438 183.976562 341.0625 183.574219 341.0625 183.164062 C 341.0625 182.753906 341.023438 182.347656 340.945312 181.949219 C 340.863281 181.546875 340.746094 181.15625 340.589844 180.777344 C 340.433594 180.402344 340.242188 180.042969 340.011719 179.699219 C 339.785156 179.359375 339.527344 179.046875 339.238281 178.757812 " fill-opacity="1" fill-rule="nonzero"/></g><g clip-path="url(#9b884759ae)"><path fill="#673ab7" d="M 111.574219 315.933594 C 111.574219 323.011719 105.839844 328.746094 98.761719 328.746094 L 32.136719 328.746094 C 25.0625 328.746094 19.324219 323.011719 19.324219 315.933594 L 19.324219 249.308594 C 19.324219 242.230469 25.0625 236.496094 32.136719 236.496094 L 98.761719 236.496094 C 105.839844 236.496094 111.574219 242.230469 111.574219 249.308594 Z M 111.574219 315.933594 " fill-opacity="1" fill-rule="nonzero"/></g><path fill="#ffffff" d="M 88.589844 286.722656 C 86.925781 284.414062 84.515625 282.824219 81.414062 281.980469 C 81.414062 281.980469 84.027344 281.03125 86.386719 277.496094 C 87.796875 275.242188 88.511719 272.523438 88.511719 269.347656 C 88.511719 263.839844 86.515625 259.609375 82.515625 256.714844 C 78.519531 253.820312 74.007812 251.871094 66.347656 251.871094 L 42.386719 251.871094 L 42.386719 313.371094 L 69.113281 313.371094 C 76.367188 313.320312 81.824219 311.757812 85.539062 308.757812 C 89.230469 305.710938 91.074219 301.199219 91.074219 295.175781 C 91.074219 291.847656 90.253906 289.027344 88.589844 286.722656 Z M 57.761719 262.121094 C 57.761719 262.121094 68.449219 262.121094 68.652344 262.121094 C 72.546875 262.121094 75.699219 265.273438 75.699219 269.167969 C 75.699219 273.0625 72.546875 276.214844 68.652344 276.214844 C 68.449219 276.214844 57.761719 276.214844 57.761719 276.214844 Z M 70.574219 303.121094 L 57.761719 303.121094 L 57.761719 287.746094 L 70.574219 287.746094 C 74.828125 287.746094 78.261719 291.179688 78.261719 295.433594 C 78.261719 299.6875 74.828125 303.121094 70.574219 303.121094 Z M 70.574219 303.121094 " fill-opacity="1" fill-rule="nonzero"/><path fill="#148449" d="M 201.519531 264.136719 L 185.691406 264.132812 L 185.691406 296.140625 C 185.691406 310.246094 184.972656 315.613281 182.710938 320.246094 C 180.554688 324.773438 177.160156 327.722656 170.171875 331.09375 L 184.867188 338.25 C 191.859375 334.671875 195.25 331.40625 197.820312 326.25 C 200.597656 320.882812 201.519531 314.667969 201.519531 301.722656 Z M 201.519531 264.136719 " fill-opacity="1" fill-rule="nonzero"/><path fill="#148449" d="M 174.9375 315.699219 L 174.9375 239.828125 L 158.992188 239.828125 L 158.992188 262.597656 C 156.613281 261.929688 154.644531 261.703125 152.058594 261.703125 C 135.382812 261.703125 124.617188 273.035156 124.617188 290.480469 C 124.617188 308.585938 134.761719 318.03125 154.234375 318.03125 C 160.753906 318.03125 166.761719 317.363281 174.9375 315.699219 Z M 140.875 290.140625 C 140.875 280.808594 145.53125 275.476562 153.605469 275.476562 L 153.59375 275.476562 C 153.707031 275.472656 153.816406 275.472656 153.929688 275.472656 C 155.742188 275.472656 157.480469 275.800781 158.996094 276.367188 L 158.996094 303.804688 C 156.71875 304.140625 155.269531 304.25 153.511719 304.25 C 145.328125 304.25 140.875 299.253906 140.875 290.140625 Z M 140.875 290.140625 " fill-opacity="1" fill-rule="nonzero"/><path fill="#148449" d="M 184.851562 239.28125 L 201.910156 239.28125 L 201.910156 256.898438 L 184.851562 256.898438 Z M 184.851562 239.28125 " fill-opacity="1" fill-rule="nonzero"/><g clip-path="url(#99f583a00f)"><path fill="#000000" d="M 184.722656 341.53125 C 184.234375 341.53125 183.734375 341.421875 183.285156 341.199219 L 168.730469 334.089844 C 167.601562 333.539062 166.882812 332.390625 166.886719 331.136719 C 166.890625 329.878906 167.609375 328.734375 168.742188 328.1875 C 174.96875 325.175781 177.8125 322.765625 179.625 318.957031 C 181.648438 314.808594 182.261719 309.550781 182.261719 296.417969 L 182.261719 264.613281 C 182.261719 262.804688 183.730469 261.332031 185.542969 261.332031 L 201.21875 261.332031 C 203.03125 261.332031 204.5 262.808594 204.5 264.617188 L 204.5 301.960938 C 204.5 315.460938 203.484375 321.992188 200.472656 327.832031 C 197.59375 333.636719 193.59375 337.390625 186.226562 341.167969 C 185.757812 341.410156 185.242188 341.53125 184.722656 341.53125 Z M 177.261719 330.949219 L 184.664062 334.566406 C 189.839844 331.722656 192.523438 329.070312 194.609375 324.867188 C 197.09375 320.035156 197.929688 314.269531 197.929688 301.953125 L 197.929688 267.898438 L 188.820312 267.894531 L 188.820312 296.410156 C 188.820312 310.875 188.085938 316.570312 185.542969 321.800781 C 183.789062 325.496094 181.289062 328.3125 177.261719 330.949219 Z M 177.261719 330.949219 " fill-opacity="1" fill-rule="nonzero"/></g><g clip-path="url(#654a57b4d9)"><path fill="#000000" d="M 154.242188 319.714844 C 133.019531 319.714844 121.332031 309.347656 121.332031 290.535156 C 121.332031 272.398438 133.679688 260.214844 152.066406 260.214844 C 153.402344 260.214844 154.585938 260.269531 155.726562 260.390625 L 155.726562 239.8125 C 155.726562 238 157.195312 236.53125 159.007812 236.53125 L 174.957031 236.53125 C 176.769531 236.53125 178.242188 238 178.242188 239.8125 L 178.242188 314.238281 C 178.242188 315.816406 177.121094 317.167969 175.574219 317.464844 C 167.207031 319.0625 161.027344 319.714844 154.242188 319.714844 Z M 174.953125 314.238281 L 175 314.238281 Z M 152.066406 266.777344 C 137.160156 266.777344 127.898438 275.878906 127.898438 290.535156 C 127.898438 305.753906 136.519531 313.144531 154.242188 313.144531 C 159.851562 313.144531 165.0625 312.664062 171.671875 311.5 L 171.671875 243.09375 L 162.285156 243.09375 L 162.285156 264.328125 C 162.285156 265.34375 161.816406 266.308594 161.007812 266.929688 C 160.199219 267.550781 159.148438 267.753906 158.171875 267.507812 C 156.148438 266.972656 154.496094 266.777344 152.066406 266.777344 Z M 153.519531 306.757812 C 143.550781 306.757812 137.597656 300.578125 137.597656 290.222656 C 137.597656 279.703125 143.722656 273.171875 153.589844 273.160156 C 153.59375 273.160156 153.597656 273.160156 153.601562 273.160156 C 153.59375 273.140625 153.910156 273.148438 153.9375 273.148438 C 156.054688 273.148438 158.183594 273.503906 160.09375 274.171875 C 161.40625 274.632812 162.285156 275.875 162.285156 277.269531 L 162.285156 303.0625 C 162.285156 304.703125 161.078125 306.089844 159.453125 306.3125 C 157.085938 306.636719 155.480469 306.757812 153.519531 306.757812 Z M 153.621094 279.714844 C 147.34375 279.714844 144.164062 283.25 144.164062 290.214844 C 144.164062 297.023438 147.136719 300.191406 153.519531 300.191406 C 154.292969 300.191406 154.988281 300.167969 155.726562 300.117188 L 155.726562 279.839844 C 155.097656 279.75 154.460938 279.746094 153.824219 279.710938 C 153.753906 279.714844 153.691406 279.714844 153.621094 279.714844 Z M 153.621094 279.714844 " fill-opacity="1" fill-rule="nonzero"/></g><g clip-path="url(#8117c72a7a)"><path fill="#000000" d="M 201.21875 259.636719 L 185.542969 259.636719 C 183.730469 259.636719 182.261719 258.164062 182.261719 256.355469 L 182.261719 239.828125 C 182.261719 238.019531 183.730469 236.546875 185.542969 236.546875 L 201.21875 236.546875 C 203.03125 236.546875 204.5 238.019531 204.5 239.828125 L 204.5 256.355469 C 204.5 258.164062 203.03125 259.636719 201.21875 259.636719 Z M 188.824219 253.074219 L 197.933594 253.074219 L 197.933594 243.109375 L 188.824219 243.109375 Z M 188.824219 253.074219 " fill-opacity="1" fill-rule="nonzero"/></g><g clip-path="url(#8e3c96f17e)"><path fill="#016ec5" d="M 305.058594 240.519531 L 305.058594 323.613281 L 232.503906 312.835938 L 305.058594 337.269531 L 329.246094 327.203125 L 329.246094 252.082031 L 329.253906 252.078125 L 329.246094 252.0625 L 329.246094 250.582031 Z M 279.667969 254.675781 L 257.441406 276.644531 L 244.0625 266.566406 L 238.550781 268.40625 L 252.160156 281.863281 L 238.550781 295.320312 L 244.0625 297.164062 L 257.441406 287.082031 L 257.445312 287.082031 L 279.664062 309.050781 L 292.976562 303.394531 L 292.976562 260.332031 Z M 279.664062 270.347656 L 279.664062 293.375 L 264.375 281.859375 Z M 279.664062 270.347656 " fill-opacity="1" fill-rule="nonzero"/></g></svg>