<svg xmlns="http://www.w3.org/2000/svg" xmlns:xlink="http://www.w3.org/1999/xlink" width="400" zoomAndPan="magnify" viewBox="0 0 300 149.999998" height="200" preserveAspectRatio="xMidYMid meet" version="1.0"><defs><clipPath id="09854da2b8"><path d="M 17 15 L 53.734375 15 L 53.734375 51.75 L 17 51.75 Z M 17 15 " clip-rule="nonzero"/></clipPath><clipPath id="c25089314e"><path d="M 17 15 L 36 15 L 36 51.75 L 17 51.75 Z M 17 15 " clip-rule="nonzero"/></clipPath><clipPath id="201abebbbb"><path d="M 97.863281 14.546875 L 132.363281 14.546875 L 132.363281 49.046875 L 97.863281 49.046875 Z M 97.863281 14.546875 " clip-rule="nonzero"/></clipPath><clipPath id="83061dfd0d"><path d="M 192 22 L 205.539062 22 L 205.539062 50.136719 L 192 50.136719 Z M 192 22 " clip-rule="nonzero"/></clipPath><clipPath id="32de15117c"><path d="M 176.289062 13.386719 L 197 13.386719 L 197 43 L 176.289062 43 Z M 176.289062 13.386719 " clip-rule="nonzero"/></clipPath><clipPath id="d0851a91db"><path d="M 197 13.386719 L 205.539062 13.386719 L 205.539062 22 L 197 22 Z M 197 13.386719 " clip-rule="nonzero"/></clipPath><clipPath id="2811759a91"><path d="M 249.429688 13.386719 L 283.929688 13.386719 L 283.929688 47.886719 L 249.429688 47.886719 Z M 249.429688 13.386719 " clip-rule="nonzero"/></clipPath><clipPath id="d49657389f"><path d="M 16.984375 59.082031 L 53.734375 59.082031 L 53.734375 95.832031 L 16.984375 95.832031 Z M 16.984375 59.082031 " clip-rule="nonzero"/></clipPath><clipPath id="9d8564591a"><path d="M 97.863281 57.796875 L 132.363281 57.796875 L 132.363281 96 L 97.863281 96 Z M 97.863281 57.796875 " clip-rule="nonzero"/></clipPath><clipPath id="6d488460e3"><path d="M 97.863281 57.796875 L 132 57.796875 L 132 87 L 97.863281 87 Z M 97.863281 57.796875 " clip-rule="nonzero"/></clipPath><clipPath id="0bd83c754d"><path d="M 114 67 L 132.363281 67 L 132.363281 87 L 114 87 Z M 114 67 " clip-rule="nonzero"/></clipPath><clipPath id="09af69f43d"><path d="M 185 68 L 211.539062 68 L 211.539062 94.332031 L 185 94.332031 Z M 185 68 " clip-rule="nonzero"/></clipPath><clipPath id="2a11b87e6b"><path d="M 176.289062 59.082031 L 202 59.082031 L 202 85 L 176.289062 85 Z M 176.289062 59.082031 " clip-rule="nonzero"/></clipPath><clipPath id="d9b4707f06"><path d="M 252.609375 59.082031 L 284.109375 59.082031 L 284.109375 94.332031 L 252.609375 94.332031 Z M 252.609375 59.082031 " clip-rule="nonzero"/></clipPath><clipPath id="8e7976d813"><path d="M 143.503906 106.027344 L 176.503906 106.027344 L 176.503906 142.777344 L 143.503906 142.777344 Z M 143.503906 106.027344 " clip-rule="nonzero"/></clipPath></defs><g clip-path="url(#09854da2b8)"><path fill="#ffc44d" d="M 18.351562 14.914062 C 17.984375 14.914062 17.632812 15.074219 17.390625 15.347656 C 17.144531 15.625 17.03125 15.992188 17.078125 16.355469 L 20.496094 43.703125 C 20.550781 44.128906 20.8125 44.5 21.195312 44.691406 L 34.871094 51.527344 C 35.230469 51.710938 35.65625 51.710938 36.015625 51.527344 L 49.691406 44.691406 C 50.074219 44.5 50.335938 44.128906 50.390625 43.703125 L 53.808594 16.355469 C 53.855469 15.992188 53.742188 15.625 53.496094 15.347656 C 53.253906 15.074219 52.90625 14.914062 52.535156 14.914062 Z M 18.351562 14.914062 " fill-opacity="1" fill-rule="nonzero"/></g><g clip-path="url(#c25089314e)"><path fill="#e5b045" d="M 35.445312 14.914062 L 35.445312 51.664062 C 35.246094 51.664062 35.050781 51.621094 34.871094 51.527344 L 21.195312 44.691406 C 20.8125 44.5 20.550781 44.128906 20.496094 43.703125 L 17.078125 16.355469 C 17.03125 15.992188 17.144531 15.625 17.390625 15.347656 C 17.632812 15.074219 17.984375 14.914062 18.351562 14.914062 Z M 35.445312 14.914062 " fill-opacity="1" fill-rule="evenodd"/></g><path fill="#cfd8dc" d="M 32.878906 20.042969 C 33.589844 20.042969 34.160156 20.617188 34.160156 21.324219 L 34.160156 43.546875 C 34.160156 44.003906 33.917969 44.425781 33.523438 44.652344 C 33.128906 44.882812 32.640625 44.886719 32.242188 44.660156 L 26.261719 41.238281 C 25.648438 40.886719 25.433594 40.105469 25.785156 39.492188 C 26.136719 38.875 26.917969 38.664062 27.535156 39.011719 L 31.597656 41.335938 L 31.597656 21.324219 C 31.597656 20.617188 32.171875 20.042969 32.878906 20.042969 Z M 32.878906 20.042969 " fill-opacity="1" fill-rule="evenodd"/><path fill="#eceff1" d="M 36.726562 21.324219 C 36.726562 20.617188 37.300781 20.042969 38.007812 20.042969 L 46.554688 20.042969 C 47.261719 20.042969 47.835938 20.617188 47.835938 21.324219 C 47.835938 22.03125 47.261719 22.605469 46.554688 22.605469 L 39.289062 22.605469 L 39.289062 30.835938 L 45.421875 29.472656 C 45.820312 29.386719 46.238281 29.492188 46.546875 29.761719 C 46.855469 30.035156 47.015625 30.433594 46.976562 30.839844 L 46.121094 40.242188 C 46.082031 40.683594 45.816406 41.074219 45.417969 41.273438 L 38.582031 44.691406 C 37.949219 45.007812 37.179688 44.75 36.863281 44.117188 C 36.542969 43.484375 36.800781 42.714844 37.433594 42.398438 L 43.632812 39.300781 L 44.265625 32.359375 L 38.285156 33.6875 C 37.90625 33.769531 37.507812 33.679688 37.207031 33.433594 C 36.902344 33.191406 36.726562 32.824219 36.726562 32.433594 Z M 36.726562 21.324219 " fill-opacity="1" fill-rule="evenodd"/><g clip-path="url(#201abebbbb)"><path fill="#016ec5" d="M 123.734375 14.546875 L 123.734375 44.175781 L 97.863281 40.335938 L 123.734375 49.046875 L 132.359375 45.457031 L 132.359375 18.667969 L 132.363281 18.667969 L 132.359375 18.664062 L 132.359375 18.136719 Z M 114.679688 19.59375 L 106.753906 27.429688 L 101.984375 23.835938 L 100.019531 24.492188 L 104.871094 29.289062 L 100.019531 34.085938 L 101.984375 34.746094 L 106.753906 31.152344 L 106.757812 31.152344 L 114.679688 38.984375 L 119.425781 36.96875 L 119.425781 21.609375 Z M 114.679688 25.183594 L 114.679688 33.394531 L 109.226562 29.289062 Z M 114.679688 25.183594 " fill-opacity="1" fill-rule="nonzero"/></g><path fill="#148449" d="M 204.472656 23.0625 L 198.914062 23.0625 L 198.914062 34.265625 C 198.914062 39.199219 198.660156 41.078125 197.867188 42.699219 C 197.105469 44.285156 195.914062 45.316406 193.460938 46.496094 L 198.625 49.003906 C 201.078125 47.75 202.269531 46.605469 203.171875 44.800781 C 204.148438 42.921875 204.472656 40.75 204.472656 36.21875 Z M 204.472656 23.0625 " fill-opacity="1" fill-rule="nonzero"/><path fill="#148449" d="M 195.132812 41.109375 L 195.132812 14.554688 L 189.53125 14.554688 L 189.53125 22.523438 C 188.699219 22.289062 188.007812 22.210938 187.097656 22.210938 C 181.242188 22.210938 177.457031 26.175781 177.457031 32.28125 C 177.457031 38.621094 181.023438 41.925781 187.863281 41.925781 C 190.152344 41.925781 192.261719 41.691406 195.132812 41.109375 Z M 183.167969 32.164062 C 183.167969 28.898438 184.804688 27.03125 187.640625 27.03125 L 187.636719 27.03125 C 187.675781 27.03125 187.714844 27.03125 187.753906 27.03125 C 188.390625 27.03125 189.003906 27.144531 189.535156 27.34375 L 189.535156 36.945312 C 188.734375 37.0625 188.226562 37.101562 187.609375 37.101562 C 184.734375 37.101562 183.167969 35.355469 183.167969 32.164062 Z M 183.167969 32.164062 " fill-opacity="1" fill-rule="nonzero"/><path fill="#148449" d="M 198.617188 14.363281 L 204.609375 14.363281 L 204.609375 20.527344 L 198.617188 20.527344 Z M 198.617188 14.363281 " fill-opacity="1" fill-rule="nonzero"/><g clip-path="url(#83061dfd0d)"><path fill="#000000" d="M 198.574219 50.152344 C 198.398438 50.152344 198.226562 50.113281 198.066406 50.035156 L 192.953125 47.546875 C 192.558594 47.351562 192.304688 46.953125 192.308594 46.511719 C 192.308594 46.074219 192.5625 45.671875 192.957031 45.480469 C 195.144531 44.425781 196.144531 43.582031 196.78125 42.25 C 197.492188 40.796875 197.707031 38.957031 197.707031 34.359375 L 197.707031 23.230469 C 197.707031 22.59375 198.222656 22.082031 198.859375 22.082031 L 204.367188 22.082031 C 205.003906 22.082031 205.519531 22.597656 205.519531 23.230469 L 205.519531 36.300781 C 205.519531 41.027344 205.164062 43.3125 204.105469 45.355469 C 203.09375 47.386719 201.6875 48.703125 199.101562 50.023438 C 198.933594 50.109375 198.753906 50.152344 198.574219 50.152344 Z M 195.949219 46.445312 L 198.550781 47.710938 C 200.371094 46.71875 201.3125 45.789062 202.042969 44.316406 C 202.917969 42.628906 203.210938 40.609375 203.210938 36.296875 L 203.210938 24.378906 L 200.011719 24.378906 L 200.011719 34.359375 C 200.011719 39.421875 199.753906 41.414062 198.859375 43.246094 C 198.242188 44.539062 197.367188 45.523438 195.949219 46.445312 Z M 195.949219 46.445312 " fill-opacity="1" fill-rule="nonzero"/></g><g clip-path="url(#32de15117c)"><path fill="#000000" d="M 187.863281 42.515625 C 180.410156 42.515625 176.304688 38.886719 176.304688 32.300781 C 176.304688 25.953125 180.644531 21.6875 187.101562 21.6875 C 187.570312 21.6875 187.984375 21.710938 188.386719 21.75 L 188.386719 14.550781 C 188.386719 13.914062 188.902344 13.402344 189.539062 13.402344 L 195.140625 13.402344 C 195.777344 13.402344 196.296875 13.914062 196.296875 14.550781 L 196.296875 40.597656 C 196.296875 41.148438 195.902344 41.621094 195.359375 41.726562 C 192.417969 42.285156 190.25 42.515625 187.863281 42.515625 Z M 195.140625 40.597656 L 195.15625 40.597656 Z M 187.101562 23.984375 C 181.863281 23.984375 178.613281 27.171875 178.613281 32.300781 C 178.613281 37.628906 181.640625 40.214844 187.863281 40.214844 C 189.835938 40.214844 191.664062 40.046875 193.988281 39.640625 L 193.988281 15.699219 L 190.691406 15.699219 L 190.691406 23.128906 C 190.691406 23.484375 190.527344 23.820312 190.242188 24.039062 C 189.957031 24.257812 189.589844 24.328125 189.246094 24.242188 C 188.535156 24.054688 187.953125 23.984375 187.101562 23.984375 Z M 187.609375 37.980469 C 184.109375 37.980469 182.019531 35.816406 182.019531 32.191406 C 182.019531 28.511719 184.171875 26.226562 187.636719 26.21875 C 187.636719 26.21875 187.640625 26.21875 187.640625 26.21875 C 187.636719 26.214844 187.746094 26.21875 187.757812 26.21875 C 188.5 26.21875 189.25 26.339844 189.921875 26.574219 C 190.382812 26.734375 190.691406 27.171875 190.691406 27.660156 L 190.691406 36.6875 C 190.691406 37.261719 190.265625 37.746094 189.695312 37.824219 C 188.863281 37.9375 188.300781 37.980469 187.609375 37.980469 Z M 187.644531 28.515625 C 185.441406 28.515625 184.324219 29.753906 184.324219 32.191406 C 184.324219 34.574219 185.371094 35.683594 187.609375 35.683594 C 187.882812 35.683594 188.128906 35.675781 188.386719 35.65625 L 188.386719 28.558594 C 188.167969 28.527344 187.941406 28.527344 187.71875 28.515625 C 187.695312 28.515625 187.671875 28.515625 187.644531 28.515625 Z M 187.644531 28.515625 " fill-opacity="1" fill-rule="nonzero"/></g><g clip-path="url(#d0851a91db)"><path fill="#000000" d="M 204.367188 21.488281 L 198.859375 21.488281 C 198.222656 21.488281 197.707031 20.972656 197.707031 20.339844 L 197.707031 14.554688 C 197.707031 13.921875 198.222656 13.40625 198.859375 13.40625 L 204.367188 13.40625 C 205.003906 13.40625 205.519531 13.921875 205.519531 14.554688 L 205.519531 20.339844 C 205.519531 20.972656 205.003906 21.488281 204.367188 21.488281 Z M 200.011719 19.191406 L 203.214844 19.191406 L 203.214844 15.703125 L 200.011719 15.703125 Z M 200.011719 19.191406 " fill-opacity="1" fill-rule="nonzero"/></g><g clip-path="url(#2811759a91)"><path fill="#673ab7" d="M 283.929688 43.097656 C 283.929688 45.742188 281.785156 47.886719 279.136719 47.886719 L 254.222656 47.886719 C 251.574219 47.886719 249.429688 45.742188 249.429688 43.097656 L 249.429688 18.179688 C 249.429688 15.53125 251.574219 13.386719 254.222656 13.386719 L 279.136719 13.386719 C 281.785156 13.386719 283.929688 15.53125 283.929688 18.179688 Z M 283.929688 43.097656 " fill-opacity="1" fill-rule="nonzero"/></g><path fill="#ffffff" d="M 275.332031 32.171875 C 274.710938 31.308594 273.808594 30.714844 272.648438 30.398438 C 272.648438 30.398438 273.628906 30.042969 274.507812 28.722656 C 275.035156 27.878906 275.304688 26.863281 275.304688 25.675781 C 275.304688 23.613281 274.554688 22.03125 273.0625 20.949219 C 271.566406 19.867188 269.878906 19.136719 267.015625 19.136719 L 258.054688 19.136719 L 258.054688 42.136719 L 268.050781 42.136719 C 270.761719 42.117188 272.804688 41.535156 274.191406 40.414062 C 275.574219 39.273438 276.261719 37.585938 276.261719 35.335938 C 276.261719 34.089844 275.957031 33.035156 275.332031 32.171875 Z M 263.804688 22.972656 C 263.804688 22.972656 267.800781 22.972656 267.878906 22.972656 C 269.332031 22.972656 270.511719 24.148438 270.511719 25.605469 C 270.511719 27.0625 269.332031 28.242188 267.878906 28.242188 C 267.800781 28.242188 263.804688 28.242188 263.804688 28.242188 Z M 268.597656 38.304688 L 263.804688 38.304688 L 263.804688 32.554688 L 268.597656 32.554688 C 270.1875 32.554688 271.472656 33.839844 271.472656 35.429688 C 271.472656 37.019531 270.1875 38.304688 268.597656 38.304688 Z M 268.597656 38.304688 " fill-opacity="1" fill-rule="nonzero"/><g clip-path="url(#d49657389f)"><path fill="#f03c2e" d="M 53.039062 75.820312 L 36.996094 59.777344 C 36.773438 59.554688 36.515625 59.382812 36.226562 59.265625 C 35.9375 59.144531 35.636719 59.082031 35.320312 59.082031 C 35.007812 59.082031 34.707031 59.144531 34.417969 59.265625 C 34.125 59.382812 33.871094 59.554688 33.648438 59.777344 L 30.316406 63.105469 L 34.542969 67.332031 C 35.527344 66.988281 36.652344 67.222656 37.4375 68.007812 C 37.816406 68.390625 38.066406 68.839844 38.1875 69.367188 C 38.308594 69.890625 38.28125 70.40625 38.101562 70.917969 L 42.175781 74.992188 C 43.160156 74.648438 44.300781 74.871094 45.085938 75.660156 C 45.351562 75.921875 45.554688 76.226562 45.695312 76.574219 C 45.839844 76.917969 45.910156 77.277344 45.910156 77.652344 C 45.910156 78.023438 45.839844 78.382812 45.695312 78.730469 C 45.554688 79.074219 45.351562 79.378906 45.085938 79.644531 C 44.820312 79.90625 44.515625 80.109375 44.171875 80.253906 C 43.828125 80.394531 43.46875 80.46875 43.09375 80.46875 C 42.71875 80.46875 42.359375 80.394531 42.015625 80.253906 C 41.671875 80.109375 41.367188 79.90625 41.101562 79.640625 C 40.273438 78.816406 40.070312 77.597656 40.488281 76.578125 L 36.6875 72.78125 L 36.6875 82.777344 C 36.96875 82.914062 37.214844 83.089844 37.4375 83.308594 C 37.699219 83.574219 37.902344 83.878906 38.046875 84.222656 C 38.1875 84.566406 38.261719 84.925781 38.261719 85.300781 C 38.261719 85.675781 38.1875 86.035156 38.046875 86.378906 C 37.902344 86.722656 37.699219 87.027344 37.4375 87.292969 C 37.171875 87.554688 36.867188 87.761719 36.523438 87.902344 C 36.175781 88.046875 35.816406 88.117188 35.445312 88.117188 C 35.070312 88.117188 34.710938 88.046875 34.367188 87.902344 C 34.023438 87.761719 33.71875 87.554688 33.453125 87.292969 C 33.1875 87.027344 32.984375 86.722656 32.84375 86.378906 C 32.699219 86.035156 32.628906 85.675781 32.628906 85.300781 C 32.628906 84.925781 32.699219 84.566406 32.84375 84.222656 C 32.984375 83.878906 33.1875 83.574219 33.453125 83.308594 C 33.726562 83.039062 34.027344 82.832031 34.375 82.695312 L 34.375 72.605469 C 34.039062 72.46875 33.726562 72.265625 33.453125 71.992188 C 33.046875 71.585938 32.792969 71.105469 32.679688 70.542969 C 32.570312 69.984375 32.625 69.4375 32.847656 68.910156 L 28.679688 64.746094 L 17.675781 75.734375 C 17.453125 75.957031 17.28125 76.214844 17.164062 76.503906 C 17.042969 76.792969 16.980469 77.09375 16.980469 77.410156 C 16.980469 77.722656 17.042969 78.027344 17.164062 78.316406 C 17.28125 78.605469 17.453125 78.863281 17.675781 79.082031 L 33.722656 95.128906 C 33.945312 95.347656 34.199219 95.519531 34.488281 95.640625 C 34.78125 95.761719 35.082031 95.820312 35.394531 95.820312 C 35.707031 95.820312 36.011719 95.761719 36.300781 95.640625 C 36.589844 95.519531 36.847656 95.347656 37.070312 95.128906 L 53.039062 79.179688 C 53.261719 78.960938 53.433594 78.703125 53.554688 78.414062 C 53.671875 78.121094 53.734375 77.820312 53.734375 77.507812 C 53.734375 77.191406 53.671875 76.890625 53.554688 76.601562 C 53.433594 76.3125 53.261719 76.054688 53.039062 75.832031 " fill-opacity="1" fill-rule="nonzero"/></g><g clip-path="url(#9d8564591a)"><path fill="#00549d" d="M 114.121094 58.148438 C 114.734375 57.804688 115.488281 57.804688 116.101562 58.148438 C 119.132812 59.855469 128.257812 64.992188 131.289062 66.699219 C 131.902344 67.042969 132.28125 67.683594 132.28125 68.371094 C 132.28125 71.785156 132.28125 82.058594 132.28125 85.472656 C 132.28125 86.164062 131.902344 86.800781 131.289062 87.148438 C 128.257812 88.855469 119.132812 93.992188 116.101562 95.699219 C 115.488281 96.042969 114.734375 96.042969 114.121094 95.699219 C 111.089844 93.992188 101.96875 88.855469 98.933594 87.148438 C 98.320312 86.800781 97.945312 86.164062 97.945312 85.472656 C 97.945312 82.0625 97.945312 71.785156 97.945312 68.375 C 97.945312 67.683594 98.320312 67.042969 98.933594 66.699219 C 101.964844 64.992188 111.089844 59.855469 114.121094 58.148438 Z M 114.121094 58.148438 " fill-opacity="1" fill-rule="evenodd"/></g><g clip-path="url(#6d488460e3)"><path fill="#0086d4" d="M 98.21875 86.355469 C 97.980469 86.03125 97.945312 85.726562 97.945312 85.3125 C 97.945312 81.917969 97.945312 71.703125 97.945312 68.308594 C 97.945312 67.621094 98.320312 66.988281 98.933594 66.644531 C 101.953125 64.949219 111.046875 59.839844 114.066406 58.144531 C 114.675781 57.800781 115.507812 57.808594 116.117188 58.148438 C 119.136719 59.847656 128.199219 64.910156 131.21875 66.609375 C 131.464844 66.746094 131.648438 66.910156 131.816406 67.128906 Z M 98.21875 86.355469 " fill-opacity="1" fill-rule="evenodd"/></g><path fill="#ffffff" d="M 115.113281 64.234375 C 122.09375 64.234375 127.761719 69.917969 127.761719 76.921875 C 127.761719 83.925781 122.09375 89.613281 115.113281 89.613281 C 108.128906 89.613281 102.460938 83.925781 102.460938 76.921875 C 102.460938 69.917969 108.128906 64.234375 115.113281 64.234375 Z M 115.113281 70.578125 C 118.601562 70.578125 121.4375 73.421875 121.4375 76.921875 C 121.4375 80.425781 118.601562 83.269531 115.113281 83.269531 C 111.621094 83.269531 108.785156 80.425781 108.785156 76.921875 C 108.785156 73.421875 111.621094 70.578125 115.113281 70.578125 Z M 115.113281 70.578125 " fill-opacity="1" fill-rule="evenodd"/><g clip-path="url(#0bd83c754d)"><path fill="#0075c0" d="M 131.8125 67.140625 C 132.28125 67.578125 132.273438 68.238281 132.273438 68.757812 C 132.273438 72.195312 132.242188 81.980469 132.28125 85.417969 C 132.285156 85.777344 132.164062 86.15625 131.988281 86.441406 L 114.746094 76.921875 Z M 131.8125 67.140625 " fill-opacity="1" fill-rule="evenodd"/></g><path fill="#ffffff" d="M 121.4375 74.203125 L 123.242188 74.203125 L 123.242188 79.644531 L 121.4375 79.644531 Z M 127.761719 74.203125 L 129.570312 74.203125 L 129.570312 79.644531 L 127.761719 79.644531 Z M 127.761719 74.203125 " fill-opacity="1" fill-rule="evenodd"/><path fill="#ffffff" d="M 119.628906 76.015625 L 125.050781 76.015625 L 125.050781 77.828125 L 119.628906 77.828125 Z M 125.953125 76.015625 L 131.375 76.015625 L 131.375 77.828125 L 125.953125 77.828125 Z M 125.953125 76.015625 " fill-opacity="1" fill-rule="evenodd"/><g clip-path="url(#09af69f43d)"><path fill="#f2bb30" d="M 206.457031 84.972656 C 208.875 84.972656 209.769531 83.289062 210.609375 80.761719 C 211.480469 78.160156 211.441406 75.65625 210.609375 72.320312 C 210.011719 69.921875 208.875 68.109375 206.457031 68.109375 L 203.34375 68.109375 L 203.34375 71.796875 C 203.34375 74.652344 200.917969 77.0625 198.152344 77.0625 L 189.851562 77.0625 C 187.582031 77.0625 185.703125 79.007812 185.703125 81.285156 L 185.703125 89.195312 C 185.703125 91.449219 187.660156 92.769531 189.851562 93.414062 C 192.480469 94.183594 195.007812 94.324219 198.152344 93.414062 C 200.242188 92.808594 202.300781 91.585938 202.300781 89.195312 L 202.300781 86.03125 L 194.007812 86.03125 L 194.007812 84.976562 L 206.457031 84.976562 Z M 198.671875 88.136719 C 199.535156 88.136719 200.234375 88.84375 200.234375 89.714844 C 200.234375 90.59375 199.535156 91.300781 198.671875 91.300781 C 197.816406 91.300781 197.109375 90.585938 197.109375 89.714844 C 197.121094 88.835938 197.820312 88.136719 198.671875 88.136719 Z M 198.671875 88.136719 " fill-opacity="1" fill-rule="nonzero"/></g><g clip-path="url(#2a11b87e6b)"><path fill="#35668f" d="M 181.429688 84.976562 L 184.28125 84.976562 L 184.28125 81.183594 C 184.28125 78.4375 186.652344 76.019531 189.46875 76.019531 L 197.769531 76.019531 C 200.078125 76.019531 201.917969 74.117188 201.917969 71.800781 L 201.917969 63.882812 C 201.917969 61.628906 200.023438 59.941406 197.769531 59.5625 C 194.988281 59.105469 191.964844 59.128906 189.46875 59.570312 L 189.472656 59.570312 C 185.957031 60.191406 185.324219 61.488281 185.324219 63.890625 L 185.324219 67.054688 L 193.632812 67.054688 L 193.632812 68.109375 L 182.207031 68.109375 C 179.789062 68.109375 177.675781 69.5625 177.015625 72.324219 C 176.253906 75.488281 176.222656 77.460938 177.015625 80.761719 C 177.605469 83.21875 179.011719 84.976562 181.429688 84.976562 Z M 188.953125 64.9375 C 188.089844 64.9375 187.390625 64.230469 187.390625 63.359375 C 187.398438 62.480469 188.089844 61.777344 188.953125 61.777344 C 189.808594 61.777344 190.511719 62.488281 190.511719 63.359375 C 190.511719 64.234375 189.8125 64.9375 188.953125 64.9375 Z M 188.953125 64.9375 " fill-opacity="1" fill-rule="nonzero"/></g><g clip-path="url(#d9b4707f06)"><path fill="#e44d26" d="M 255.5 90.675781 L 252.636719 59.253906 L 284.082031 59.253906 L 281.214844 90.667969 L 268.339844 94.164062 Z M 255.5 90.675781 " fill-opacity="1" fill-rule="nonzero"/></g><path fill="#f16529" d="M 268.359375 91.492188 L 278.765625 88.667969 L 281.210938 61.820312 L 268.359375 61.820312 Z M 268.359375 91.492188 " fill-opacity="1" fill-rule="nonzero"/><path fill="#ebebeb" d="M 268.359375 73.476562 L 263.148438 73.476562 L 262.789062 69.53125 L 268.359375 69.53125 L 268.359375 65.675781 L 258.488281 65.675781 L 258.582031 66.710938 L 259.550781 77.328125 L 268.359375 77.328125 Z M 268.359375 83.484375 L 268.339844 83.488281 L 263.957031 82.328125 L 263.675781 79.253906 L 259.726562 79.253906 L 260.277344 85.304688 L 268.339844 87.496094 L 268.359375 87.492188 Z M 268.359375 83.484375 " fill-opacity="1" fill-rule="nonzero"/><path fill="#ffffff" d="M 268.34375 73.476562 L 268.34375 77.328125 L 273.191406 77.328125 L 272.734375 82.328125 L 268.34375 83.488281 L 268.34375 87.496094 L 276.414062 85.304688 L 276.472656 84.65625 L 277.398438 74.507812 L 277.496094 73.476562 Z M 268.34375 65.675781 L 268.34375 69.53125 L 277.851562 69.53125 L 277.933594 68.664062 L 278.113281 66.710938 L 278.207031 65.675781 Z M 268.34375 65.675781 " fill-opacity="1" fill-rule="nonzero"/><g clip-path="url(#8e7976d813)"><path fill="#0277bd" d="M 176.5 106.027344 L 143.511719 106.027344 L 146.421875 138.910156 L 160.003906 142.777344 L 173.589844 138.910156 Z M 176.5 106.027344 " fill-opacity="1" fill-rule="nonzero"/></g><path fill="#039be5" d="M 160.003906 108.929688 L 160.003906 139.78125 L 170.871094 136.683594 L 173.296875 108.929688 Z M 160.003906 108.929688 " fill-opacity="1" fill-rule="nonzero"/><path fill="#ffffff" d="M 168.835938 113.765625 L 160.003906 113.765625 L 160.003906 117.632812 L 164.757812 117.632812 L 164.46875 121.5 L 160.003906 121.5 L 160.003906 125.371094 L 164.273438 125.371094 L 163.984375 129.722656 L 160.003906 131.074219 L 160.003906 135.136719 L 167.667969 132.621094 L 168.347656 121.5 Z M 168.835938 113.765625 " fill-opacity="1" fill-rule="nonzero"/><path fill="#eeeeee" d="M 160.003906 113.765625 L 160.003906 117.632812 L 151.371094 117.632812 L 151.078125 113.765625 Z M 155.542969 121.5 L 155.734375 125.371094 L 160.003906 125.371094 L 160.003906 121.5 Z M 155.929688 127.304688 L 152.046875 127.304688 L 152.339844 132.621094 L 160.003906 135.136719 L 160.003906 131.074219 L 156.027344 129.722656 Z M 155.929688 127.304688 " fill-opacity="1" fill-rule="nonzero"/></svg>